<svg width="138" height="42" viewBox="0 0 138 42" fill="none" xmlns="http://www.w3.org/2000/svg">
<g clip-path="url(#clip0_1989_8682)">
<path d="M127.984 0.320312H10.0205C9.64804 0.320312 9.2795 0.320312 8.907 0.320312C8.59394 0.320312 8.28881 0.328268 7.97179 0.332246C7.29416 0.348158 6.6086 0.391915 5.93494 0.511254C5.25334 0.630592 4.62326 0.833468 4.00111 1.1517C3.39085 1.46596 2.83606 1.87171 2.35657 2.35305C1.86915 2.83836 1.46495 3.39527 1.15981 4.00787C0.842794 4.62843 0.644657 5.26491 0.525774 5.94911C0.402929 6.62537 0.359339 7.30957 0.343488 7.99378C0.335563 8.30804 0.331599 8.6223 0.327637 8.93258V33.0588C0.331599 33.3771 0.335563 33.6834 0.343488 34.0016C0.359339 34.6858 0.402929 35.37 0.525774 36.0463C0.644657 36.7305 0.846757 37.3709 1.15981 37.9915C1.46891 38.6001 1.87311 39.161 2.35657 39.6384C2.83606 40.1277 3.39481 40.5334 4.00111 40.8397C4.6193 41.158 5.25334 41.3608 5.93494 41.4841C6.61257 41.6075 7.29416 41.6472 7.97179 41.6632C8.28485 41.6711 8.59394 41.6751 8.907 41.6751C9.2795 41.6751 9.64804 41.6751 10.0205 41.6751H127.984C128.348 41.6751 128.721 41.6751 129.085 41.6751C129.395 41.6751 129.712 41.6751 130.025 41.6632C130.706 41.6433 131.388 41.6035 132.058 41.4841C132.739 41.3608 133.373 41.158 133.999 40.8397C134.606 40.5294 135.164 40.1237 135.644 39.6384C136.127 39.157 136.531 38.6001 136.845 37.9915C137.158 37.3709 137.36 36.7305 137.475 36.0463C137.601 35.37 137.641 34.6858 137.665 34.0016C137.669 33.6834 137.669 33.3771 137.669 33.0588C137.677 32.6889 137.677 32.3189 137.677 31.941V10.0464C137.677 9.67247 137.677 9.30253 137.669 8.93258C137.669 8.61832 137.669 8.30406 137.665 7.99378C137.641 7.30957 137.601 6.62537 137.475 5.94911C137.36 5.26491 137.158 4.62843 136.845 4.00787C136.531 3.39527 136.127 2.83836 135.644 2.35305C135.164 1.86774 134.606 1.46198 133.999 1.1517C133.373 0.837446 132.739 0.630592 132.058 0.511254C131.388 0.387937 130.706 0.348158 130.025 0.332246C129.716 0.328268 129.399 0.320312 129.085 0.320312C128.721 0.320312 128.348 0.320312 127.984 0.320312Z" fill="#A6A6A6"></path>
<path d="M8.91496 40.7876C8.60587 40.7876 8.3047 40.7876 7.9956 40.7756C7.42893 40.7597 6.7513 40.7279 6.09348 40.6086C5.47133 40.4972 4.92051 40.3142 4.40931 40.0477C3.8783 39.7772 3.40277 39.4271 2.99065 39.0094C2.57059 38.5957 2.22187 38.1184 1.9524 37.5853C1.6869 37.0682 1.50857 36.5153 1.40158 35.8947C1.27874 35.2065 1.24703 34.5104 1.23118 33.9813C1.22326 33.7665 1.21533 33.0505 1.21533 33.0505V8.93612C1.21533 8.93612 1.22326 8.23202 1.23118 8.02119C1.24307 7.48814 1.27477 6.792 1.39762 6.11177C1.50461 5.48723 1.6869 4.9343 1.94844 4.41717C2.21791 3.88014 2.56663 3.40279 2.97876 2.98908C3.39881 2.56742 3.8783 2.21736 4.40535 1.94686C4.92843 1.68034 5.47925 1.49735 6.08556 1.38994C6.77111 1.26663 7.4646 1.2348 7.99164 1.22287L8.911 1.21094H129.082L130.009 1.22287C130.532 1.2348 131.225 1.26663 131.899 1.38994C132.513 1.49735 133.064 1.68033 133.599 1.95084C134.122 2.21736 134.598 2.56742 135.014 2.98908C135.43 3.40279 135.779 3.88412 136.056 4.42114C136.318 4.94226 136.496 5.49519 136.599 6.10382C136.718 6.74825 136.753 7.40859 136.777 8.02915C136.777 8.31954 136.777 8.62982 136.777 8.93612C136.785 9.318 136.785 9.68397 136.785 10.0499V31.9446C136.785 32.3145 136.785 32.6765 136.777 33.0425C136.777 33.3727 136.777 33.679 136.777 33.9932C136.757 34.5939 136.718 35.2542 136.603 35.8867C136.496 36.5113 136.318 37.0642 136.052 37.5933C135.779 38.1223 135.43 38.6037 135.018 39.0094C134.598 39.4351 134.122 39.7851 133.595 40.0517C133.068 40.3222 132.529 40.4972 131.899 40.6125C131.249 40.7319 130.572 40.7637 129.997 40.7796C129.7 40.7876 129.387 40.7915 129.086 40.7915H127.984H8.911L8.91496 40.7876Z" fill="black"></path>
<path d="M51.2644 28.273H46.4972L45.3321 31.4752H43.2358L47.904 19.5215H49.8853L54.6605 31.4752H52.4572L51.2644 28.273ZM47.0995 26.646H50.6581L49.3821 23.221C49.2077 22.7476 49.0333 22.2265 48.863 21.6537C48.7084 22.1589 48.542 22.676 48.3636 23.2051L47.0995 26.646Z" fill="white"></path>
<path d="M55.6035 24.7532C55.6035 24.0929 55.5797 23.3689 55.5361 22.5733H57.4422C57.5135 22.9433 57.5611 23.3172 57.5888 23.7031C58.3774 22.8398 59.2809 22.4062 60.2994 22.4062C60.8898 22.4062 61.4406 22.5574 61.9439 22.8558C62.4472 23.1541 62.8553 23.6275 63.1644 24.2759C63.4735 24.9203 63.6281 25.7438 63.6281 26.7382C63.6281 27.7327 63.4497 28.6675 63.0971 29.4035C62.7444 30.1394 62.249 30.7003 61.615 31.0782C60.981 31.4561 60.2439 31.647 59.4117 31.647C58.8094 31.647 58.215 31.5436 57.6285 31.3407V35.0203L55.5995 35.1954V24.7532H55.6035ZM60.9413 29.304C61.3535 28.7471 61.5635 27.9316 61.5635 26.8576C61.5635 25.8631 61.3931 25.1391 61.0483 24.6936C60.7075 24.2441 60.2518 24.0213 59.6812 24.0213C59.2849 24.0213 58.9203 24.1128 58.5875 24.2998C58.2546 24.4867 57.9336 24.7373 57.6324 25.0516V29.8212C57.8345 29.9206 58.0723 30.0002 58.3378 30.0559C58.6073 30.1155 58.8728 30.1434 59.1343 30.1434C59.9229 30.1434 60.5252 29.8649 60.9374 29.308L60.9413 29.304Z" fill="white"></path>
<path d="M64.9355 24.7532C64.9355 24.0929 64.9118 23.3689 64.8682 22.5733H66.7742C66.8456 22.9433 66.8931 23.3172 66.9209 23.7031C67.7095 22.8398 68.613 22.4062 69.6314 22.4062C70.2218 22.4062 70.7727 22.5574 71.2759 22.8558C71.7792 23.1541 72.1874 23.6275 72.4965 24.2759C72.8056 24.9203 72.9601 25.7438 72.9601 26.7382C72.9601 27.7327 72.7818 28.6675 72.4291 29.4035C72.0764 30.1394 71.5811 30.7003 70.947 31.0782C70.313 31.4561 69.5759 31.647 68.7437 31.647C68.1414 31.647 67.547 31.5436 66.9605 31.3407V35.0203L64.9316 35.1954V24.7532H64.9355ZM70.2734 29.304C70.6855 28.7471 70.8955 27.9316 70.8955 26.8576C70.8955 25.8631 70.7251 25.1391 70.3804 24.6936C70.0396 24.2441 69.5838 24.0213 69.0132 24.0213C68.6169 24.0213 68.2524 24.1128 67.9195 24.2998C67.5866 24.4867 67.2656 24.7373 66.9645 25.0516V29.8212C67.1666 29.9206 67.4043 30.0002 67.6698 30.0559C67.9353 30.1115 68.2048 30.1434 68.4663 30.1434C69.2549 30.1434 69.8573 29.8649 70.2694 29.308L70.2734 29.304Z" fill="white"></path>
<path d="M76.7923 30.9093C75.9165 30.424 75.2429 29.7239 74.7713 28.8169C74.2997 27.9099 74.0659 26.8359 74.0659 25.5988C74.0659 24.2582 74.3354 23.1165 74.8783 22.1777C75.4212 21.2389 76.1583 20.5348 77.0935 20.0654C78.0287 19.596 79.0748 19.3613 80.2359 19.3613C80.9215 19.3613 81.5753 19.4369 82.1975 19.5881C82.8196 19.7392 83.3982 19.9461 83.9371 20.2126L83.418 21.7799C82.3401 21.2628 81.3098 21.0042 80.3271 21.0042C79.4989 21.0042 78.7737 21.1832 78.1515 21.5373C77.5294 21.8913 77.0459 22.4124 76.7011 23.1006C76.3564 23.7888 76.182 24.6202 76.182 25.5908C76.182 26.4421 76.3168 27.1979 76.5823 27.8582C76.8478 28.5186 77.2678 29.0397 77.8385 29.4255C78.4091 29.8114 79.1343 30.0023 80.0021 30.0023C80.3984 30.0023 80.7907 29.9705 81.187 29.9029C81.5833 29.8353 81.9518 29.7398 82.2966 29.6125V27.1939H79.5424V25.6107H84.266V30.6428C83.5884 30.961 82.8712 31.2077 82.1262 31.3787C81.3772 31.5498 80.6362 31.6333 79.8951 31.6333C78.7023 31.6333 77.6641 31.3906 76.7883 30.9014L76.7923 30.9093Z" fill="white"></path>
<path d="M91.5854 31.476C91.5141 31.1299 91.4665 30.7361 91.4467 30.2945C91.1336 30.6685 90.7294 30.9867 90.2262 31.2453C89.7269 31.5078 89.1602 31.6391 88.5301 31.6391C88.0189 31.6391 87.5553 31.5396 87.1352 31.3368C86.7152 31.1379 86.3823 30.8355 86.1366 30.4298C85.8909 30.024 85.7681 29.5308 85.7681 28.95C85.7681 28.0868 86.0772 27.3986 86.6954 26.8814C87.3135 26.3683 88.3478 26.1097 89.7942 26.1097C90.3371 26.1097 90.8721 26.1495 91.4031 26.2251V26.0501C91.4031 25.2624 91.2367 24.7095 90.8998 24.3873C90.567 24.0651 90.0875 23.9059 89.4614 23.9059C89.0294 23.9059 88.5658 23.9696 88.0704 24.0969C87.5791 24.2242 87.1431 24.3753 86.7706 24.5504L86.4497 23.0666C86.8103 22.9035 87.2898 22.7523 87.8802 22.6131C88.4707 22.4739 89.0968 22.4062 89.7546 22.4062C90.5194 22.4062 91.1733 22.5216 91.7082 22.7563C92.2432 22.991 92.6633 23.3928 92.9644 23.9616C93.2656 24.5305 93.4162 25.2982 93.4162 26.2609V29.8013C93.4162 30.1712 93.436 30.7281 93.4835 31.476H91.5775H91.5854ZM90.3688 29.8251C90.7889 29.6223 91.1376 29.3677 91.4031 29.0653V27.4145C90.8483 27.3548 90.3966 27.323 90.0478 27.323C89.2077 27.323 88.6292 27.4583 88.3082 27.7327C87.9872 28.0032 87.8287 28.3732 87.8287 28.8346C87.8287 29.2961 87.9436 29.6024 88.1774 29.8132C88.4112 30.024 88.7282 30.1314 89.1245 30.1314C89.5208 30.1314 89.9448 30.028 90.3649 29.8251H90.3688Z" fill="white"></path>
<path d="M95.2031 29.339V18.8213L97.2241 18.6582V28.977C97.2241 29.3549 97.2875 29.6254 97.4183 29.7806C97.5451 29.9357 97.7512 30.0153 98.0325 30.0153C98.1593 30.0153 98.3377 29.9834 98.5675 29.9238L98.8053 31.3837C98.6151 31.4592 98.3773 31.5229 98.1039 31.5706C97.8265 31.6184 97.5649 31.6422 97.3192 31.6422C95.9125 31.6422 95.2071 30.8745 95.2071 29.339H95.2031Z" fill="white"></path>
<path d="M100.256 29.339V18.8213L102.277 18.6582V28.977C102.277 29.3549 102.34 29.6254 102.471 29.7806C102.598 29.9357 102.804 30.0153 103.085 30.0153C103.212 30.0153 103.39 29.9834 103.62 29.9238L103.858 31.3837C103.668 31.4592 103.43 31.5229 103.157 31.5706C102.879 31.6184 102.618 31.6422 102.372 31.6422C100.965 31.6422 100.26 30.8745 100.26 29.339H100.256Z" fill="white"></path>
<path d="M112.271 27.2833H106.47C106.565 29.1489 107.448 30.0798 109.125 30.0798C109.541 30.0798 109.969 30.0281 110.405 29.9286C110.84 29.8252 111.257 29.6899 111.657 29.5189L112.101 30.9152C111.11 31.4005 109.992 31.6391 108.756 31.6391C107.813 31.6391 107.02 31.4601 106.374 31.1021C105.728 30.7441 105.241 30.231 104.916 29.5587C104.591 28.8864 104.429 28.0789 104.429 27.1321C104.429 26.1854 104.599 25.3023 104.948 24.5902C105.293 23.8821 105.772 23.3372 106.39 22.9632C107.004 22.5893 107.718 22.4023 108.522 22.4023C109.327 22.4023 110.06 22.5973 110.622 22.9911C111.185 23.3849 111.601 23.91 111.871 24.5624C112.14 25.2187 112.279 25.9387 112.279 26.7304V27.2753L112.271 27.2833ZM110.29 25.9865C110.25 25.2784 110.072 24.7454 109.755 24.3913C109.438 24.0373 109.014 23.8583 108.483 23.8583C107.952 23.8583 107.539 24.0373 107.195 24.3953C106.854 24.7533 106.628 25.2824 106.525 25.9865H110.29Z" fill="white"></path>
<path d="M113.908 24.8089C113.908 24.3196 113.884 23.5757 113.84 22.5733H115.738C115.77 22.8199 115.802 23.1182 115.834 23.4603C115.865 23.8024 115.885 24.0849 115.897 24.2997C116.131 23.9098 116.365 23.5797 116.59 23.3132C116.816 23.0466 117.086 22.8278 117.387 22.6608C117.692 22.4937 118.037 22.4102 118.425 22.4102C118.738 22.4102 119.008 22.442 119.23 22.5096L118.976 24.2758C118.778 24.2161 118.56 24.1843 118.318 24.1843C117.843 24.1843 117.427 24.3076 117.07 24.5503C116.713 24.793 116.333 25.1987 115.929 25.7596V31.4759H113.908V24.8089Z" fill="white"></path>
<path d="M120.45 35.1148C120.153 35.0631 119.911 35.0034 119.717 34.9358L120.085 33.452C120.22 33.4918 120.394 33.5276 120.604 33.5634C120.814 33.5992 121.009 33.6151 121.195 33.6151C122.094 33.6151 122.768 33.0343 123.216 31.8728L123.347 31.5426L120.077 22.5684H122.253L123.897 27.5846C124.167 28.4438 124.337 29.1002 124.417 29.5576C124.571 28.9132 124.749 28.2688 124.96 27.6283L126.628 22.5723H128.673L125.411 31.5904C125.106 32.4416 124.773 33.1298 124.417 33.6509C124.06 34.172 123.64 34.5619 123.156 34.8125C122.673 35.0671 122.087 35.1904 121.401 35.1904C121.06 35.1904 120.743 35.1626 120.446 35.1108L120.45 35.1148Z" fill="white"></path>
<path d="M43.228 7.89453H46.8896L46.7866 8.78161H44.3019V10.5001H46.6439V11.3315H44.3019V13.2369H46.9213L46.8302 14.132H43.228V7.89453Z" fill="white"></path>
<path d="M49.4102 10.9496L47.4803 7.89453H48.7008L50.0085 10.1381L51.3876 7.89453H52.5724L50.6584 10.9098L52.7309 14.132H51.4946L50.0125 11.6776L48.5066 14.132H47.3218L49.4102 10.9496Z" fill="white"></path>
<path d="M53.5191 7.8946H55.1914C55.98 7.8946 56.5783 8.05372 56.9984 8.37594C57.4184 8.69815 57.6245 9.16357 57.6245 9.7722C57.6245 10.1859 57.5294 10.5479 57.3432 10.8542C57.1569 11.1645 56.8954 11.3992 56.5585 11.5663C56.2257 11.7333 55.8373 11.8129 55.4054 11.8129C55.1676 11.8129 54.8981 11.785 54.589 11.7254V14.1281H53.5151V7.89062L53.5191 7.8946ZM56.2098 10.6792C56.4397 10.4723 56.5546 10.1779 56.5546 9.80004C56.5546 9.42214 56.4396 9.1397 56.2058 8.96865C55.972 8.7976 55.6312 8.71406 55.1795 8.71406H54.597V10.9298C54.8664 10.9735 55.0725 10.9934 55.2152 10.9934C55.655 10.9934 55.9879 10.89 56.2138 10.6792H56.2098Z" fill="white"></path>
<path d="M58.6826 7.89453H59.7565V13.2091H62.3284L62.2372 14.132H58.6826V7.89453Z" fill="white"></path>
<path d="M63.957 13.8253C63.5013 13.5627 63.1565 13.1968 62.9148 12.7234C62.6731 12.25 62.5542 11.7011 62.5542 11.0765C62.5542 10.4202 62.681 9.84335 62.9386 9.35009C63.1922 8.85682 63.5647 8.47892 64.0442 8.20841C64.5276 7.94189 65.0943 7.80664 65.7482 7.80664C66.402 7.80664 66.9132 7.93791 67.365 8.19648C67.8167 8.45505 68.1615 8.82102 68.3993 9.29439C68.637 9.76379 68.7559 10.3127 68.7559 10.9333C68.7559 11.6016 68.6251 12.1824 68.3676 12.6796C68.11 13.1729 67.7414 13.5548 67.262 13.8213C66.7825 14.0878 66.2197 14.2231 65.5738 14.2231C64.9279 14.2231 64.4088 14.0918 63.957 13.8293V13.8253ZM66.7389 13.0615C67.04 12.8586 67.2659 12.5802 67.4125 12.2261C67.5631 11.8721 67.6345 11.4664 67.6345 11.0089C67.6345 10.5514 67.5671 10.1616 67.4363 9.81153C67.3055 9.46147 67.0955 9.18301 66.8062 8.97218C66.517 8.76533 66.1445 8.6619 65.6887 8.6619C65.233 8.6619 64.8843 8.76931 64.5831 8.98014C64.282 9.19097 64.0521 9.4734 63.9015 9.82744C63.7509 10.1815 63.6757 10.5753 63.6757 11.0009C63.6757 11.4504 63.747 11.8562 63.8896 12.2102C64.0323 12.5682 64.2503 12.8467 64.5475 13.0536C64.8407 13.2604 65.2053 13.3638 65.6412 13.3638C66.0771 13.3638 66.4377 13.2644 66.7389 13.0615Z" fill="white"></path>
<path d="M69.957 7.8946H71.9027C72.6121 7.8946 73.151 8.03781 73.5156 8.32024C73.8802 8.60268 74.0624 9.01241 74.0624 9.5375C74.0624 9.86767 73.9951 10.1581 73.8643 10.4087C73.7335 10.6593 73.5711 10.8661 73.3769 11.0213C73.1827 11.1804 72.9806 11.2958 72.7746 11.3753L74.6846 14.1281H73.4403L71.8235 11.6538H71.0349V14.1281H69.961V7.89062L69.957 7.8946ZM71.6372 10.8462C71.8988 10.8462 72.1286 10.7945 72.3307 10.6951C72.5289 10.5917 72.6874 10.4484 72.7983 10.2655C72.9093 10.0785 72.9648 9.86369 72.9648 9.62103C72.9648 9.30678 72.8657 9.08003 72.6676 8.93285C72.4694 8.78964 72.1841 8.71406 71.8037 8.71406H71.027V10.8462H71.6372Z" fill="white"></path>
<path d="M75.5322 7.89453H79.1938L79.0908 8.78161H76.6061V10.5001H78.9481V11.3315H76.6061V13.2369H79.2255L79.1344 14.132H75.5322V7.89453Z" fill="white"></path>
<path d="M83.1768 7.89453H84.2507V14.132H83.1768V7.89453Z" fill="white"></path>
<path d="M87.0836 8.79355H85.1577L85.2528 7.89453H90.0913L89.9923 8.79355H88.1615V14.132H87.0876V8.79355H87.0836Z" fill="white"></path>
<path d="M94.7436 13.8253C94.2879 13.5627 93.9432 13.1968 93.7014 12.7234C93.4597 12.25 93.3408 11.7011 93.3408 11.0765C93.3408 10.4202 93.4676 9.84335 93.7252 9.35009C93.9788 8.85682 94.3513 8.47892 94.8308 8.20841C95.3143 7.94189 95.8809 7.80664 96.5348 7.80664C97.1887 7.80664 97.6998 7.93791 98.1516 8.19648C98.6034 8.45505 98.9481 8.82102 99.1859 9.29439C99.4236 9.76379 99.5425 10.3127 99.5425 10.9333C99.5425 11.6016 99.4118 12.1824 99.1542 12.6796C98.8966 13.1729 98.5281 13.5548 98.0486 13.8213C97.5691 14.0878 97.0064 14.2231 96.3604 14.2231C95.7145 14.2231 95.1954 14.0918 94.7436 13.8293V13.8253ZM97.5255 13.0615C97.8267 12.8586 98.0525 12.5802 98.1992 12.2261C98.3497 11.8721 98.4211 11.4664 98.4211 11.0089C98.4211 10.5514 98.3537 10.1616 98.2229 9.81153C98.0922 9.46147 97.8821 9.18301 97.5929 8.97218C97.3036 8.76533 96.9311 8.6619 96.4754 8.6619C96.0196 8.6619 95.6709 8.76931 95.3697 8.98014C95.0686 9.19097 94.8387 9.4734 94.6882 9.82744C94.5376 10.1815 94.4623 10.5753 94.4623 11.0009C94.4623 11.4504 94.5336 11.8562 94.6763 12.2102C94.8189 12.5682 95.0369 12.8467 95.3341 13.0536C95.6273 13.2604 95.9919 13.3638 96.4278 13.3638C96.8637 13.3638 97.2243 13.2644 97.5255 13.0615Z" fill="white"></path>
<path d="M100.744 7.89453H101.976L105.047 12.7277C105.023 12.2703 105.008 11.8446 105.008 11.4588V7.89453H106.002V14.132H104.809L101.691 9.21919C101.722 9.7761 101.738 10.2694 101.738 10.703V14.132H100.744V7.89453Z" fill="white"></path>
<path fill-rule="evenodd" clip-rule="evenodd" d="M28.1617 7.8418H16.6974C11.2962 7.8418 9.32275 9.82282 9.32275 15.2448V26.753C9.32275 32.1749 11.2962 34.1559 16.6974 34.1559H28.1577C33.559 34.1559 35.5364 32.1749 35.5364 26.753V15.2448C35.5364 9.82282 33.5629 7.8418 28.1617 7.8418Z" fill="#C8202F"></path>
<path d="M14.5142 21H15.2077V24.4409H14.5142V23.0447H12.9449V24.4409H12.2515V21H12.9449V22.3883H14.5142V21ZM18.4294 22.9691C18.4294 23.53 18.152 23.8283 17.6487 23.8283C17.1455 23.8283 16.8641 23.522 16.8641 22.9452V21H16.1706V22.9691C16.1706 23.9357 16.7056 24.4926 17.6408 24.4926C18.576 24.4926 19.1229 23.9278 19.1229 22.9412V21H18.4294V22.9691ZM26.4659 23.3669L25.6892 21H25.1225L24.3458 23.3669L23.5889 21.004H22.8479L24.0407 24.4409H24.6153L25.3959 22.1815L26.1766 24.4409H26.7591L27.9519 21.004H27.2307L26.4738 23.3669H26.4659ZM29.1922 22.9611H30.4564V22.3366H29.1922V21.6325H31.027V21.004H28.5067V24.4409H31.0944V23.8124H29.1922V22.9611ZM31.9226 24.4369H32.6081V21H31.9226V24.4369ZM20.498 23.7249L20.1849 24.4409H19.4756L20.9854 21.004H21.5996L23.1015 24.4409H22.3723L22.0632 23.7249H20.494H20.498ZM20.7555 23.1043H21.8057L21.2786 21.8752L20.7555 23.1043Z" fill="white"></path>
<path d="M22.4314 16.6219C20.026 16.6219 18.0684 14.6568 18.0684 12.2422H18.6866C18.6866 14.3147 20.3668 16.0053 22.4314 16.0053C24.4959 16.0053 26.1801 14.3187 26.1801 12.2422H26.7983C26.7983 14.6568 24.8407 16.6219 22.4353 16.6219H22.4314Z" fill="white"></path>
</g>
<defs>
<clipPath id="clip0_1989_8682">
<rect width="138" height="42" fill="white"></rect>
</clipPath>
</defs>
</svg>