<svg width="139" height="48" viewBox="0 0 139 48" fill="none" xmlns="http://www.w3.org/2000/svg">
<path d="M127.435 0.858514H11.0325C10.6082 0.858514 10.1889 0.858514 9.76568 0.860828C9.4115 0.863142 9.06009 0.869854 8.70244 0.875523C7.92547 0.884663 7.15033 0.953013 6.38375 1.07998C5.61825 1.20971 4.87672 1.4543 4.18425 1.80547C3.49265 2.15963 2.86073 2.61981 2.31139 3.16933C1.75917 3.71726 1.29885 4.35058 0.948116 5.04496C0.596411 5.73803 0.352544 6.48071 0.224937 7.24736C0.0961086 8.01301 0.0267846 8.78749 0.0175877 9.56384C0.0068268 9.91861 0.00566972 10.2745 0 10.6294V37.3745C0.00566972 37.7338 0.0068268 38.0818 0.0175877 38.4413C0.0267933 39.2176 0.0961173 39.992 0.224937 40.7576C0.352201 41.5246 0.596083 42.2677 0.948116 42.961C1.29868 43.6532 1.75907 44.284 2.31139 44.8289C2.85865 45.3808 3.49098 45.8413 4.18425 46.1928C4.87671 46.5449 5.61816 46.7909 6.38375 46.9226C7.15046 47.0486 7.92552 47.117 8.70244 47.1272C9.05998 47.1351 9.4115 47.1396 9.7658 47.1396C10.1889 47.1419 10.6082 47.1419 11.0325 47.1419H127.435C127.851 47.1419 128.274 47.1419 128.689 47.1396C129.042 47.1396 129.404 47.1351 129.756 47.1272C130.532 47.1175 131.305 47.0491 132.07 46.9226C132.839 46.79 133.583 46.544 134.278 46.1928C134.971 45.8411 135.603 45.3807 136.15 44.8289C136.701 44.2819 137.162 43.6515 137.517 42.961C137.866 42.2672 138.108 41.5242 138.233 40.7576C138.362 39.9919 138.434 39.2176 138.448 38.4412C138.453 38.0818 138.453 37.7338 138.453 37.3745C138.462 36.9541 138.462 36.5361 138.462 36.1089V11.8927C138.462 11.4689 138.462 11.0486 138.453 10.6294C138.453 10.2745 138.453 9.91861 138.448 9.56373C138.434 8.7873 138.362 8.013 138.233 7.24724C138.107 6.48112 137.866 5.73857 137.517 5.04508C136.803 3.65315 135.67 2.52013 134.278 1.80536C133.583 1.45505 132.838 1.21052 132.07 1.07986C131.306 0.952357 130.532 0.884003 129.756 0.875408C129.404 0.869738 129.042 0.862911 128.689 0.860713C128.274 0.858398 127.851 0.858514 127.435 0.858514Z" fill="#A6A6A6"></path>
<path d="M9.77147 46.1292C9.41891 46.1292 9.07491 46.1247 8.72512 46.1168C8.00055 46.1074 7.27767 46.0444 6.56241 45.9282C5.89547 45.8133 5.24938 45.5996 4.64547 45.2942C4.04707 44.9913 3.50129 44.5941 3.02902 44.1179C2.54988 43.6473 2.15097 43.1014 1.8481 42.502C1.54192 41.8987 1.33003 41.252 1.2198 40.5845C1.1008 39.8672 1.03644 39.1419 1.02726 38.4149C1.01986 38.1709 1.01025 37.3585 1.01025 37.3585V10.629C1.01025 10.629 1.02044 9.82904 1.02726 9.59392C1.03608 8.86808 1.1001 8.14397 1.21876 7.42785C1.32921 6.7585 1.54128 6.10995 1.84764 5.50466C2.14934 4.90564 2.54599 4.35938 3.02219 3.88706C3.49789 3.41025 4.04545 3.01103 4.64489 2.70394C5.24743 2.39951 5.8923 2.18736 6.5579 2.0746C7.27552 1.95729 8.00092 1.8939 8.72801 1.88495L9.77205 1.87061H128.684L129.741 1.8853C130.461 1.89386 131.18 1.95675 131.891 2.07344C132.563 2.18765 133.215 2.40131 133.824 2.70741C135.025 3.32626 136.002 4.30535 136.619 5.50744C136.92 6.10858 137.129 6.75187 137.238 7.41547C137.358 8.13745 137.425 8.86724 137.439 9.59901C137.443 9.92669 137.443 10.2787 137.443 10.629C137.452 11.063 137.452 11.4759 137.452 11.8924V36.1085C137.452 36.5289 137.452 36.9391 137.443 37.3526C137.443 37.7289 137.443 38.0736 137.438 38.4284C137.424 39.1471 137.358 39.8639 137.24 40.573C137.132 41.2454 136.921 41.8971 136.615 42.5053C136.31 43.0983 135.914 43.6394 135.44 44.1087C134.968 44.5875 134.421 44.987 133.821 45.2918C133.213 45.5996 132.563 45.8141 131.891 45.928C131.176 46.0448 130.453 46.1079 129.728 46.1167C129.382 46.1248 129.036 46.1289 128.69 46.1291L127.436 46.1314L9.77147 46.1292Z" fill="black"></path>
<path d="M28.6599 24.348C28.6724 23.3823 28.9289 22.4354 29.4056 21.5954C29.8824 20.7554 30.5638 20.0497 31.3866 19.5438C30.8639 18.7973 30.1743 18.183 29.3727 17.7496C28.5711 17.3162 27.6794 17.0757 26.7685 17.0472C24.8255 16.8432 22.9418 18.2098 21.9516 18.2098C20.9424 18.2098 19.4179 17.0674 17.7764 17.1012C16.7145 17.1355 15.6797 17.4442 14.7727 17.9974C13.8656 18.5505 13.1174 19.3292 12.6007 20.2575C10.3629 24.132 12.0321 29.826 14.1759 32.9578C15.2484 34.4914 16.5017 36.2043 18.1419 36.1436C19.7468 36.0771 20.3461 35.1201 22.2836 35.1201C24.2029 35.1201 24.7653 36.1436 26.4387 36.1049C28.1609 36.0771 29.2459 34.5646 30.2808 33.0166C31.0513 31.9239 31.6443 30.7162 32.0377 29.4383C31.0371 29.0151 30.1833 28.3067 29.5826 27.4016C28.982 26.4964 28.6611 25.4344 28.6599 24.348ZM25.4992 14.9874C26.4382 13.8602 26.9008 12.4113 26.7888 10.9485C25.3542 11.0992 24.029 11.7848 23.0773 12.8688C22.612 13.3984 22.2556 14.0145 22.0286 14.6818C21.8015 15.3492 21.7082 16.0548 21.754 16.7582C22.4715 16.7656 23.1814 16.6101 23.8302 16.3034C24.4789 15.9966 25.0496 15.5467 25.4992 14.9874ZM48.9476 32.2613H43.4706L42.1554 36.145H39.8354L45.0232 21.7763H47.4334L52.6211 36.145H50.2617L48.9476 32.2613ZM44.0378 30.4691H48.3792L46.239 24.1663H46.1791L44.0378 30.4691ZM63.8247 30.9077C63.8247 34.163 62.0822 36.2546 59.4529 36.2546C58.7868 36.2894 58.1243 36.136 57.5414 35.8118C56.9584 35.4877 56.4785 35.0059 56.1567 34.4217H56.1069V39.6106H53.9566V25.6691H56.0381V27.4115H56.0776C56.4143 26.8301 56.9023 26.3509 57.4896 26.0248C58.077 25.6986 58.7418 25.5378 59.4133 25.5595C62.072 25.5595 63.8247 27.6613 63.8247 30.9077ZM61.6144 30.9077C61.6144 28.7867 60.5184 27.3923 58.8461 27.3923C57.203 27.3923 56.098 28.816 56.098 30.9075C56.098 33.0184 57.203 34.432 58.8461 34.432C60.5184 34.432 61.6144 33.0479 61.6144 30.9077ZM75.3548 30.9077C75.3548 34.163 73.6124 36.2546 70.983 36.2546C70.3169 36.2894 69.6545 36.136 69.0715 35.8118C68.4886 35.4877 68.0088 35.0059 67.6869 34.4217H67.6371V39.6106H65.4868V25.6691H67.5682V27.4115H67.6078C67.9444 26.8301 68.4324 26.3509 69.0197 26.0248C69.6071 25.6986 70.2719 25.5378 70.9434 25.5595C73.6023 25.5595 75.3548 27.6613 75.3548 30.9077ZM73.1446 30.9077C73.1446 28.7867 72.0485 27.3923 70.3762 27.3923C68.7331 27.3923 67.6281 28.816 67.6281 30.9075C67.6281 33.0184 68.7331 34.432 70.3762 34.432C72.0485 34.432 73.1446 33.0479 73.1446 30.9077ZM82.9753 32.1416C83.1347 33.5664 84.5189 34.502 86.4104 34.502C88.2228 34.502 89.5269 33.5664 89.5269 32.2816C89.5269 31.1663 88.7404 30.4985 86.8783 30.0409L85.016 29.5923C82.3776 28.955 81.1527 27.721 81.1527 25.7187C81.1527 23.2395 83.3132 21.5368 86.381 21.5368C89.4172 21.5368 91.4987 23.2395 91.5687 25.7187H89.398C89.268 24.2849 88.0827 23.4192 86.3504 23.4192C84.6183 23.4192 83.433 24.295 83.433 25.5696C83.433 26.5855 84.1901 27.1832 86.042 27.6407L87.6251 28.0295C90.5731 28.7267 91.7981 29.9109 91.7981 32.0126C91.7981 34.7008 89.6568 36.3845 86.2511 36.3845C83.0644 36.3845 80.9131 34.7403 80.7741 32.1415L82.9753 32.1416ZM96.4388 23.19V25.6691H98.431V27.372H96.4388V33.1472C96.4388 34.0444 96.8377 34.4625 97.7135 34.4625C97.95 34.4583 98.1861 34.4417 98.4208 34.4127V36.1055C98.0271 36.179 97.6269 36.2123 97.2265 36.2048C95.1055 36.2048 94.2783 35.4083 94.2783 33.3765V27.372H92.7551V25.6691H94.2783V23.19H96.4388ZM99.5847 30.9077C99.5847 27.6115 101.526 25.5403 104.553 25.5403C107.591 25.5403 109.523 27.6115 109.523 30.9077C109.523 34.2128 107.601 36.2749 104.553 36.2749C101.507 36.2749 99.5847 34.2128 99.5847 30.9077ZM107.332 30.9077C107.332 28.6466 106.296 27.312 104.553 27.312C102.811 27.312 101.776 28.6567 101.776 30.9077C101.776 33.1777 102.811 34.502 104.553 34.502C106.296 34.502 107.332 33.1777 107.332 30.9077ZM111.296 25.6691H113.347V27.4521H113.396C113.535 26.8952 113.861 26.4031 114.32 26.0584C114.779 25.7138 115.343 25.5376 115.916 25.5595C116.164 25.5586 116.411 25.5855 116.653 25.6397V27.651C116.34 27.5555 116.014 27.5116 115.687 27.5211C115.374 27.5084 115.063 27.5635 114.774 27.6826C114.485 27.8016 114.225 27.9818 114.012 28.2108C113.799 28.4398 113.638 28.7121 113.541 29.0091C113.443 29.3061 113.411 29.6207 113.446 29.9313V36.145H111.296V25.6691ZM126.567 33.0681C126.278 34.9698 124.426 36.2749 122.056 36.2749C119.009 36.2749 117.117 34.2331 117.117 30.9573C117.117 27.6714 119.019 25.5403 121.966 25.5403C124.864 25.5403 126.687 27.5313 126.687 30.7076V31.4443H119.288V31.5743C119.254 31.9598 119.302 32.3482 119.429 32.7137C119.557 33.0791 119.761 33.4133 120.027 33.6939C120.294 33.9746 120.617 34.1953 120.975 34.3415C121.334 34.4876 121.719 34.5558 122.106 34.5416C122.614 34.5892 123.124 34.4716 123.56 34.2061C123.996 33.9406 124.335 33.5414 124.525 33.0681H126.567ZM119.298 29.9415H124.535C124.555 29.5948 124.502 29.2479 124.381 28.9225C124.26 28.5971 124.073 28.3003 123.832 28.0506C123.59 27.801 123.3 27.6039 122.979 27.4717C122.658 27.3395 122.313 27.2752 121.966 27.2826C121.616 27.2806 121.269 27.3478 120.945 27.4806C120.621 27.6134 120.326 27.809 120.078 28.0562C119.83 28.3034 119.633 28.5973 119.5 28.9209C119.366 29.2444 119.297 29.5913 119.298 29.9415ZM43.7683 10.9609C44.2192 10.9285 44.6715 10.9966 45.0929 11.1603C45.5142 11.324 45.8939 11.5791 46.2047 11.9073C46.5155 12.2355 46.7495 12.6285 46.89 13.0581C47.0305 13.4877 47.0738 13.9432 47.017 14.3915C47.017 16.5972 45.8248 17.8651 43.7683 17.8651H41.2745V10.9608L43.7683 10.9609ZM42.3468 16.8887H43.6486C43.9707 16.9079 44.2931 16.8551 44.5922 16.734C44.8913 16.6129 45.1597 16.4267 45.3778 16.1889C45.5959 15.951 45.7582 15.6675 45.8529 15.359C45.9477 15.0505 45.9724 14.7248 45.9254 14.4055C45.969 14.0875 45.9417 13.7638 45.8456 13.4576C45.7494 13.1514 45.5867 12.8702 45.3691 12.6342C45.1515 12.3983 44.8844 12.2133 44.587 12.0927C44.2895 11.9721 43.9691 11.9188 43.6486 11.9366H42.3468V16.8887ZM48.2283 15.2576C48.1955 14.9152 48.2347 14.5698 48.3433 14.2434C48.4519 13.917 48.6275 13.6169 48.8588 13.3624C49.0901 13.1078 49.3721 12.9044 49.6867 12.7653C50.0013 12.6261 50.3414 12.5542 50.6854 12.5542C51.0294 12.5542 51.3695 12.6261 51.6841 12.7653C51.9986 12.9044 52.2806 13.1078 52.512 13.3624C52.7433 13.6169 52.9189 13.917 53.0275 14.2434C53.1361 14.5698 53.1752 14.9152 53.1425 15.2576C53.1759 15.6004 53.1373 15.9464 53.0291 16.2734C52.9208 16.6004 52.7453 16.9011 52.5139 17.1562C52.2825 17.4113 52.0003 17.6152 51.6854 17.7547C51.3704 17.8942 51.0298 17.9663 50.6854 17.9663C50.341 17.9663 50.0003 17.8942 49.6854 17.7547C49.3705 17.6152 49.0883 17.4113 48.8568 17.1562C48.6254 16.9011 48.45 16.6004 48.3417 16.2734C48.2335 15.9464 48.1948 15.6004 48.2283 15.2576ZM52.0849 15.2576C52.0849 14.1282 51.5775 13.4677 50.6871 13.4677C49.7933 13.4677 49.2905 14.1282 49.2905 15.2576C49.2905 16.3961 49.7934 17.0515 50.6871 17.0515C51.5775 17.0515 52.0849 16.3916 52.0849 15.2576ZM59.6749 17.865H58.6081L57.5313 14.0276H57.4499L56.3777 17.865H55.3211L53.885 12.6546H54.9278L55.8613 16.6304H55.9381L57.0093 12.6546H57.9957L59.067 16.6304H59.1483L60.0771 12.6546H61.1054L59.6749 17.865ZM62.3133 12.6548H63.3032V13.4824H63.38C63.5103 13.1851 63.7302 12.9359 64.0089 12.7695C64.2876 12.6031 64.6113 12.5278 64.9349 12.5541C65.1884 12.535 65.443 12.5733 65.6797 12.666C65.9164 12.7586 66.1293 12.9034 66.3025 13.0895C66.4757 13.2756 66.6048 13.4983 66.6802 13.7411C66.7557 13.9838 66.7755 14.2405 66.7383 14.492V17.8649H65.71V14.7502C65.71 13.913 65.3461 13.4965 64.5857 13.4965C64.4136 13.4885 64.2417 13.5178 64.082 13.5824C63.9223 13.647 63.7784 13.7454 63.6602 13.8708C63.5421 13.9962 63.4524 14.1457 63.3974 14.309C63.3424 14.4723 63.3234 14.6455 63.3416 14.8169V17.865H62.3133V12.6548ZM68.3768 10.6207H69.4049V17.865H68.3768V10.6207ZM70.8344 15.2576C70.8016 14.9152 70.8408 14.5697 70.9494 14.2432C71.058 13.9168 71.2336 13.6167 71.465 13.3621C71.6964 13.1075 71.9784 12.9041 72.293 12.7649C72.6076 12.6257 72.9478 12.5538 73.2918 12.5538C73.6358 12.5538 73.976 12.6257 74.2906 12.7649C74.6052 12.9041 74.8873 13.1075 75.1187 13.3621C75.35 13.6167 75.5257 13.9168 75.6342 14.2432C75.7428 14.5697 75.782 14.9152 75.7492 15.2576C75.7825 15.6004 75.7438 15.9463 75.6354 16.2732C75.5271 16.6001 75.3515 16.9007 75.1201 17.1557C74.8887 17.4107 74.6065 17.6144 74.2916 17.7539C73.9767 17.8933 73.6362 17.9654 73.2918 17.9654C72.9475 17.9654 72.6069 17.8933 72.292 17.7539C71.9772 17.6144 71.6949 17.4107 71.4635 17.1557C71.2321 16.9007 71.0566 16.6001 70.9482 16.2732C70.8399 15.9463 70.8011 15.6004 70.8344 15.2576ZM74.691 15.2576C74.691 14.1282 74.1836 13.4677 73.2932 13.4677C72.3994 13.4677 71.8966 14.1282 71.8966 15.2576C71.8966 16.3961 72.3995 17.0515 73.2932 17.0515C74.1836 17.0515 74.691 16.3916 74.691 15.2576ZM76.8317 16.3916C76.8317 15.4536 77.53 14.9129 78.7696 14.8361L80.1809 14.7548V14.305C80.1809 13.7547 79.8171 13.444 79.1143 13.444C78.5402 13.444 78.1424 13.6547 78.0283 14.0231H77.0328C77.1379 13.1281 77.9797 12.5542 79.1617 12.5542C80.4679 12.5542 81.2047 13.2045 81.2047 14.305V17.865H80.2148V17.1328H80.1334C79.9683 17.3954 79.7364 17.6096 79.4615 17.7533C79.1865 17.897 78.8784 17.9652 78.5685 17.9509C78.3497 17.9736 78.1287 17.9503 77.9195 17.8823C77.7104 17.8144 77.5178 17.7034 77.3541 17.5565C77.1905 17.4096 77.0595 17.2301 76.9695 17.0294C76.8795 16.8288 76.8326 16.6115 76.8317 16.3916ZM80.1809 15.9463V15.5107L78.9085 15.592C78.191 15.64 77.8655 15.8842 77.8655 16.3434C77.8655 16.8124 78.2724 17.0854 78.8317 17.0854C78.9956 17.1019 79.1612 17.0854 79.3186 17.0367C79.4759 16.988 79.6219 16.9081 79.7478 16.8019C79.8736 16.6956 79.9769 16.5651 80.0513 16.4181C80.1257 16.2711 80.1697 16.1107 80.1809 15.9463ZM82.5561 15.2576C82.5561 13.6112 83.4024 12.5683 84.7188 12.5683C85.0445 12.5533 85.3677 12.6313 85.6506 12.7932C85.9335 12.955 86.1646 13.1941 86.3167 13.4824H86.3935V10.6206H87.4217V17.8649H86.4364V17.0416H86.3551C86.1912 17.328 85.9522 17.5641 85.6638 17.7243C85.3754 17.8846 85.0487 17.9629 84.719 17.9507C83.3934 17.9507 82.5561 16.9079 82.5561 15.2576ZM83.6183 15.2576C83.6183 16.3626 84.1393 17.0277 85.0103 17.0277C85.877 17.0277 86.4127 16.3532 86.4127 15.262C86.4127 14.1762 85.8714 13.492 85.0103 13.492C84.1448 13.492 83.6183 14.1615 83.6183 15.2576ZM91.676 15.2576C91.6433 14.9152 91.6824 14.5698 91.791 14.2434C91.8996 13.917 92.0752 13.6169 92.3065 13.3624C92.5379 13.1078 92.8199 12.9044 93.1344 12.7653C93.449 12.6261 93.7892 12.5542 94.1331 12.5542C94.4771 12.5542 94.8173 12.6261 95.1318 12.7653C95.4464 12.9044 95.7284 13.1078 95.9597 13.3624C96.191 13.6169 96.3666 13.917 96.4752 14.2434C96.5838 14.5698 96.6229 14.9152 96.5902 15.2576C96.6237 15.6004 96.585 15.9464 96.4768 16.2734C96.3685 16.6004 96.1931 16.9011 95.9616 17.1562C95.7302 17.4113 95.448 17.6152 95.1331 17.7547C94.8182 17.8942 94.4776 17.9663 94.1331 17.9663C93.7887 17.9663 93.4481 17.8942 93.1331 17.7547C92.8182 17.6152 92.536 17.4113 92.3046 17.1562C92.0732 16.9011 91.8977 16.6004 91.7894 16.2734C91.6812 15.9464 91.6426 15.6004 91.676 15.2576ZM95.5326 15.2576C95.5326 14.1282 95.0252 13.4677 94.1349 13.4677C93.241 13.4677 92.7383 14.1282 92.7383 15.2576C92.7383 16.3961 93.2411 17.0515 94.1349 17.0515C95.0252 17.0515 95.5326 16.3916 95.5326 15.2576ZM97.9699 12.6548H98.9598V13.4824H99.0366C99.167 13.1851 99.3868 12.9359 99.6655 12.7695C99.9443 12.6031 100.268 12.5278 100.591 12.5541C100.845 12.535 101.1 12.5733 101.336 12.666C101.573 12.7586 101.786 12.9034 101.959 13.0895C102.132 13.2756 102.261 13.4983 102.337 13.7411C102.412 13.9838 102.432 14.2405 102.395 14.492V17.8649H101.367V14.7502C101.367 13.913 101.003 13.4965 100.242 13.4965C100.07 13.4885 99.8984 13.5178 99.7386 13.5824C99.5789 13.647 99.435 13.7454 99.3168 13.8708C99.1987 13.9962 99.109 14.1457 99.054 14.309C98.999 14.4723 98.98 14.6455 98.9982 14.8169V17.865H97.97L97.9699 12.6548ZM108.205 11.3576V12.6785H109.334V13.5446H108.205V16.2237C108.205 16.7695 108.43 17.0085 108.942 17.0085C109.073 17.0081 109.204 17.0001 109.334 16.9847V17.8413C109.149 17.8743 108.962 17.8919 108.775 17.8938C107.631 17.8938 107.176 17.4915 107.176 16.487V13.5446H106.349V12.6784H107.176V11.3577L108.205 11.3576ZM110.739 10.6207H111.758V13.492H111.839C111.976 13.192 112.202 12.9413 112.486 12.7743C112.77 12.6073 113.099 12.5319 113.428 12.5586C113.68 12.5449 113.932 12.587 114.166 12.6819C114.4 12.7769 114.611 12.9223 114.782 13.1078C114.953 13.2934 115.082 13.5144 115.158 13.7553C115.234 13.9961 115.256 14.2508 115.222 14.5011V17.865H114.193V14.7548C114.193 13.9225 113.805 13.5011 113.079 13.5011C112.902 13.4866 112.724 13.5109 112.558 13.5723C112.392 13.6337 112.241 13.7306 112.116 13.8565C111.991 13.9823 111.895 14.1339 111.835 14.3007C111.774 14.4674 111.751 14.6454 111.767 14.822V17.865H110.739V10.6207ZM121.218 16.4581C121.078 16.9343 120.776 17.3462 120.363 17.6218C119.95 17.8974 119.454 18.0191 118.96 17.9655C118.617 17.9746 118.276 17.9089 117.961 17.7729C117.645 17.6369 117.363 17.4339 117.134 17.178C116.905 16.9222 116.735 16.6195 116.634 16.2911C116.534 15.9627 116.506 15.6164 116.553 15.2763C116.508 14.935 116.536 14.588 116.636 14.2586C116.736 13.9292 116.906 13.6251 117.133 13.367C117.361 13.1089 117.642 12.9027 117.956 12.7624C118.271 12.6222 118.611 12.5511 118.956 12.5541C120.405 12.5541 121.28 13.5446 121.28 15.1807V15.5395H117.601V15.5971C117.585 15.7883 117.609 15.9808 117.671 16.1621C117.734 16.3435 117.834 16.5098 117.965 16.6503C118.095 16.7909 118.254 16.9025 118.43 16.9782C118.606 17.0539 118.797 17.0919 118.988 17.0898C119.234 17.1193 119.484 17.075 119.704 16.9625C119.925 16.85 120.107 16.6745 120.228 16.4581H121.218ZM117.601 14.7791H120.233C120.246 14.6042 120.222 14.4285 120.163 14.2634C120.104 14.0983 120.011 13.9473 119.89 13.8202C119.769 13.6931 119.623 13.5926 119.461 13.5253C119.3 13.458 119.125 13.4253 118.95 13.4293C118.772 13.4271 118.596 13.4605 118.431 13.5275C118.266 13.5946 118.117 13.6939 117.991 13.8197C117.865 13.9455 117.766 14.0952 117.699 14.2599C117.632 14.4247 117.599 14.6012 117.601 14.7791Z" fill="white"></path>
</svg>