<svg width="139" height="42" viewBox="0 0 139 42" fill="none" xmlns="http://www.w3.org/2000/svg">
<path d="M133.333 41.5461H5.12821C2.30773 41.5461 0 39.2347 0 36.4096V5.59062C0 2.76552 2.30768 0.454102 5.12821 0.454102H133.333C136.154 0.454102 138.461 2.76552 138.461 5.59062V36.4096C138.461 39.2347 136.154 41.5461 133.333 41.5461Z" fill="black"></path>
<path d="M133.333 0.454102H5.12821C2.30773 0.454102 0 2.76552 0 5.59062V36.4096C0 39.2347 2.30768 41.5461 5.12821 41.5461H133.333C136.154 41.5461 138.461 39.2347 138.461 36.4096V5.59062C138.462 2.76552 136.154 0.454102 133.333 0.454102ZM133.333 1.27592C135.709 1.27592 137.641 3.21179 137.641 5.59062V36.4096C137.641 38.7888 135.709 40.7247 133.333 40.7247H5.12821C2.75326 40.7247 0.820521 38.7888 0.820521 36.4096V5.59062C0.820521 3.21179 2.75321 1.27596 5.12821 1.27596H133.333" fill="#A6A6A6"></path>
<path d="M48.6341 10.9774C48.6341 11.8381 48.3796 12.5234 47.87 13.0347C47.2911 13.6427 46.5366 13.9469 45.6091 13.9469C44.7209 13.9469 43.9658 13.6387 43.3447 13.0215C42.7226 12.4047 42.4121 11.6398 42.4121 10.7273C42.4121 9.81436 42.7226 9.04998 43.3447 8.4327C43.9658 7.81597 44.7209 7.50732 45.6091 7.50732C46.0499 7.50732 46.4718 7.59366 46.8724 7.76583C47.273 7.93841 47.5944 8.1675 47.8348 8.45439L47.2939 8.99652C46.8865 8.50897 46.3256 8.26538 45.6091 8.26538C44.9614 8.26538 44.4013 8.49336 43.9285 8.94961C43.4557 9.40631 43.2194 9.99857 43.2194 10.7273C43.2194 11.4561 43.4557 12.0483 43.9285 12.5051C44.4013 12.9613 44.9613 13.1892 45.6091 13.1892C46.2963 13.1892 46.8692 12.9601 47.3279 12.501C47.6257 12.202 47.7979 11.7863 47.8439 11.2526H45.6091V10.5122H48.5912C48.62 10.6732 48.634 10.8277 48.634 10.9774" fill="white"></path>
<path d="M48.6341 10.9771H48.5315C48.5307 11.8181 48.2854 12.4714 47.7974 12.9618L47.7963 12.9626L47.7959 12.9635C47.2354 13.5504 46.5149 13.8426 45.6091 13.8439C44.7446 13.8426 44.021 13.5473 43.4168 12.9485C42.8139 12.3486 42.5158 11.6162 42.5146 10.727C42.5158 9.83737 42.8139 9.10541 43.4168 8.5059C44.021 7.90676 44.7446 7.611 45.6091 7.60975C46.0366 7.60975 46.4437 7.69332 46.8319 7.8598C47.2205 8.02758 47.5274 8.24744 47.7562 8.5204L47.8347 8.4541L47.7622 8.38147L47.2213 8.92396L47.2938 8.99622L47.3728 8.93047C46.9464 8.41878 46.348 8.16083 45.6091 8.16235C44.9373 8.16152 44.3463 8.40197 43.8575 8.87553C43.3639 9.35061 43.116 9.97621 43.1168 10.727C43.116 11.4779 43.3639 12.1034 43.8575 12.5785C44.3463 13.0521 44.9373 13.2925 45.6091 13.2917C46.319 13.2929 46.9241 13.0517 47.4004 12.5734C47.7185 12.2539 47.8988 11.8113 47.9461 11.2611L47.9557 11.1496H45.7116V10.6146H48.5911V10.5119L48.4901 10.53C48.5182 10.6857 48.5315 10.8338 48.5315 10.9771H48.7366C48.7366 10.8209 48.7221 10.6604 48.6921 10.4935L48.6769 10.4092H45.5066V11.355H47.8439V11.2523L47.7418 11.2435C47.6965 11.7604 47.5322 12.1496 47.2554 12.4282C46.8147 12.8679 46.2738 13.085 45.6091 13.0862C44.9854 13.0854 44.4561 12.8703 43.9998 12.4309C43.5479 11.9931 43.3231 11.4341 43.3219 10.727C43.3231 10.0199 43.5479 9.46096 43.9998 9.02313C44.4561 8.58374 44.9853 8.36864 45.6091 8.36781C46.3027 8.36947 46.8264 8.59898 47.2154 9.06247L47.2875 9.14834L47.9073 8.52677L47.9738 8.46019L47.9132 8.38826C47.6612 8.08737 47.3255 7.84854 46.9128 7.67125C46.4994 7.4934 46.0631 7.4043 45.6091 7.4043C44.6973 7.40351 43.9104 7.72453 43.2722 8.35982C42.6316 8.99386 42.3087 9.79084 42.3096 10.727C42.3087 11.6628 42.6316 12.4602 43.2726 13.0946C43.9104 13.7295 44.6973 14.0501 45.6091 14.0493C46.5587 14.0501 47.3464 13.7342 47.9441 13.1054L47.8699 13.0344L47.9425 13.1071C48.4737 12.5754 48.7373 11.8571 48.7366 10.9771H48.6341ZM53.3615 8.40234H50.5591V10.3567H53.0864V11.0973H50.5591V13.0517H53.3615V13.8089H49.769V7.64512H53.3615V8.40234Z" fill="white"></path>
<path d="M53.3616 8.40243V8.2997H50.4566V10.4595H52.9838V10.9944L50.4565 10.9947V13.1545H53.259V13.7063H49.8716V7.74793H53.259V8.40243H53.3616H53.4641V7.54248H49.6665V13.9117H53.4641V12.949H50.6616V11.2002H53.1889V10.2541H50.6616V8.50516H53.4641V8.40243H53.3616ZM56.6961 13.809H55.9049V8.40238H54.1861V7.64516H58.4149V8.40238H56.6961V13.8089" fill="white"></path>
<path d="M56.6961 13.809V13.7063H56.0074V8.2997H54.2886V7.74798H58.3123V8.2997H56.5935V13.809H56.6961H56.7987V8.50516H58.5174V7.54248H54.0835V8.50511H55.8022V13.9117H56.7987V13.8089H56.6961M61.4746 13.809V7.64516H62.265V13.8089H61.4746" fill="white"></path>
<path d="M61.4746 13.809H61.5772V7.74793H62.1625V13.7063H61.4746V13.809V13.9117H62.3676V7.54248H61.3721V13.9117H61.4746V13.809M65.7727 13.809H64.9814V8.40238H63.2627V7.64516H67.4914V8.40238H65.7727V13.8089" fill="white"></path>
<path d="M65.7726 13.8093V13.7065H65.0839V8.29991H63.3653V7.74819H67.3888V8.29991H65.6701V13.8092H65.7726H65.8752V8.50537H67.594V7.54269H63.1602V8.50532H64.8788V13.9119H65.8752V13.8092H65.7726M71.5684 12.4967C72.0238 12.9585 72.5812 13.1892 73.2403 13.1892C73.8993 13.1892 74.457 12.9585 74.9117 12.4967C75.3676 12.0348 75.596 11.4444 75.596 10.7273C75.596 10.0103 75.3676 9.41989 74.9117 8.95801C74.457 8.49613 73.8993 8.26538 73.2403 8.26538C72.5812 8.26538 72.0238 8.49613 71.5684 8.95801C71.1136 9.41989 70.8853 10.0103 70.8853 10.7273C70.8853 11.4444 71.1136 12.0348 71.5684 12.4967ZM75.4966 13.0126C74.8916 13.6358 74.1393 13.9469 73.2403 13.9469C72.3404 13.9469 71.5883 13.6358 70.9847 13.0126C70.3792 12.3902 70.078 11.6283 70.078 10.7273C70.078 9.82636 70.3792 9.06429 70.9847 8.44198C71.5884 7.81869 72.3404 7.50732 73.2403 7.50732C74.1345 7.50732 74.8849 7.82035 75.4927 8.44599C76.0996 9.07159 76.4033 9.832 76.4033 10.7273C76.4033 11.6283 76.1003 12.3902 75.4966 13.0126Z" fill="white"></path>
<path d="M71.5685 12.4964L71.4956 12.5686C71.968 13.0489 72.5573 13.2929 73.2404 13.2917C73.9231 13.2929 74.5132 13.0489 74.9848 12.5686C75.4603 12.0878 75.6995 11.4658 75.6987 10.727C75.6994 9.9883 75.4603 9.36626 74.9848 8.88546C74.5132 8.40511 73.9231 8.16115 73.2404 8.16235C72.5573 8.16115 71.968 8.40511 71.4956 8.88546C71.0212 9.36626 70.7816 9.9883 70.7829 10.727C70.7816 11.4657 71.0212 12.0878 71.4956 12.5686L71.5685 12.4964L71.6415 12.4241C71.2064 11.9806 70.9888 11.4228 70.988 10.727C70.9888 10.0312 71.2064 9.47342 71.6414 9.02992C72.0805 8.58656 72.6049 8.36905 73.2404 8.36785C73.8754 8.36905 74.401 8.58656 74.839 9.02992C75.2749 9.47342 75.4924 10.0312 75.4932 10.727C75.4924 11.4228 75.2749 11.9806 74.839 12.4241C74.401 12.8675 73.8754 13.085 73.2404 13.0862C72.6049 13.085 72.0805 12.8675 71.6415 12.4241L71.5685 12.4964ZM75.4968 13.0123L75.4235 12.941C74.8354 13.5445 74.1162 13.8427 73.2404 13.8439C72.3642 13.8426 71.645 13.5445 71.058 12.941C70.4712 12.3354 70.1815 11.6051 70.1807 10.727C70.1815 9.84896 70.4712 9.11866 71.058 8.5131C71.645 7.90953 72.3642 7.611 73.2404 7.6098C74.1106 7.611 74.8281 7.91078 75.4195 8.51749C76.0084 9.12586 76.2997 9.85501 76.3009 10.727C76.2997 11.6051 76.0092 12.3354 75.4235 12.941L75.4968 13.0123L75.5706 13.0837C76.1923 12.4441 76.5067 11.6508 76.5061 10.727C76.5068 9.80852 76.1911 9.01676 75.5665 8.37432C74.9415 7.72933 74.1587 7.40319 73.2404 7.4043C72.3173 7.40319 71.5321 7.72781 70.9111 8.3703V8.36984C70.2881 9.00988 69.9748 9.80326 69.9756 10.727C69.9748 11.6508 70.2881 12.4441 70.9111 13.0841L70.9138 13.087L70.9111 13.0837C71.5321 13.7262 72.3173 14.0501 73.2404 14.0493C74.1631 14.0501 74.9483 13.7262 75.5706 13.0837L75.4968 13.0123ZM77.5132 13.809V7.64507H78.4756L81.4663 12.4401H81.5004L81.4663 11.2522V7.64507H82.2576V13.8089H81.4323L78.3033 8.78148H78.2692L78.3033 9.96974V13.8089H77.5132" fill="white"></path>
<path d="M77.5133 13.809H77.6159V7.74793H78.4188L81.4095 12.5429H81.6058L81.569 11.2508V7.74798H82.1552V13.7063H81.4893L78.3603 8.67889H78.164L78.2008 9.97154V13.7063H77.5134V13.809V13.9117H78.4059V9.96826L78.3719 8.77885L78.2693 8.78162V8.88435H78.3034V8.78162L78.2164 8.83624L81.3755 13.9117H82.3603V7.54248H81.3639V11.2536L81.3979 12.443L81.5005 12.4402V12.3375H81.4665V12.4402L81.5534 12.3857L78.5325 7.54248H77.4108V13.9117H77.5134V13.809M109.678 31.2731H111.592V18.4306H109.678L109.678 31.2731ZM126.916 23.0568L124.722 28.6246H124.657L122.38 23.0568H120.318L123.732 30.8389L121.786 35.1676H123.783L129.044 23.0568L126.916 23.0568ZM116.063 29.8145C115.435 29.8145 114.561 29.5006 114.561 28.7238C114.561 27.7325 115.65 27.3525 116.59 27.3525C117.432 27.3525 117.827 27.5343 118.339 27.7824C118.19 28.9717 117.167 29.8145 116.063 29.8145ZM116.293 22.7758C114.908 22.7758 113.473 23.3873 112.879 24.7422L114.578 25.4524C114.941 24.7422 115.617 24.5106 116.326 24.5106C117.316 24.5106 118.322 25.1057 118.339 26.1631V26.2952C117.992 26.0969 117.25 25.7995 116.343 25.7995C114.512 25.7995 112.647 26.8071 112.647 28.6908C112.647 30.4092 114.149 31.5163 115.831 31.5163C117.118 31.5163 117.827 30.938 118.273 30.2607H118.339V31.2519H120.186V26.328C120.186 24.0483 118.487 22.7758 116.293 22.7758ZM104.466 24.6201H101.744V20.218H104.466C105.897 20.218 106.709 21.4046 106.709 22.419C106.709 23.4142 105.896 24.6201 104.466 24.6201ZM104.417 18.4306H99.8309V31.2731H101.744V26.4075H104.417C106.538 26.4075 108.623 24.8693 108.623 22.419C108.623 19.9688 106.538 18.4306 104.417 18.4306ZM79.4104 29.8168C78.0882 29.8168 76.9812 28.7081 76.9812 27.1852C76.9812 25.6463 78.0882 24.5206 79.4104 24.5206C80.7157 24.5206 81.7401 25.6463 81.7401 27.1852C81.7401 28.7081 80.7157 29.8168 79.4104 29.8168ZM81.6079 23.7759H81.5418C81.1123 23.2629 80.2857 22.7995 79.2449 22.7995C77.0638 22.7995 75.0646 24.7193 75.0646 27.1852C75.0646 29.6347 77.0638 31.538 79.2449 31.538C80.2857 31.538 81.1123 31.0744 81.5418 30.5451H81.6079V31.174C81.6079 32.8458 80.7157 33.7395 79.2782 33.7395C78.105 33.7395 77.3779 32.8951 77.0802 32.1836L75.4116 32.8787C75.8908 34.0372 77.1632 35.4606 79.2782 35.4606C81.5253 35.4606 83.4256 34.1363 83.4256 30.9091V23.0644H81.6079V23.7759ZM84.7473 31.2731H86.664V18.4302H84.7473V31.2731ZM89.4896 27.0363C89.44 25.348 90.795 24.4877 91.7697 24.4877C92.5303 24.4877 93.1744 24.8681 93.3888 25.4148L89.4896 27.0363ZM95.4381 25.58C95.075 24.6032 93.9673 22.7995 91.7036 22.7995C89.4564 22.7995 87.5894 24.5704 87.5894 27.1687C87.5894 29.6182 89.44 31.538 91.9184 31.538C93.918 31.538 95.075 30.3132 95.554 29.6017L94.0668 28.6085C93.5714 29.3368 92.8935 29.8168 91.9184 29.8168C90.9436 29.8168 90.2498 29.3698 89.8033 28.4929L95.636 26.0764L95.4381 25.58ZM48.9681 24.1402V25.9937H53.3963C53.2641 27.0363 52.9171 27.7976 52.3883 28.3272C51.7441 28.9729 50.7361 29.6844 48.9681 29.6844C46.2416 29.6844 44.1103 27.4833 44.1103 24.7525C44.1103 22.0218 46.2416 19.8204 48.9681 19.8204C50.4388 19.8204 51.5125 20.3998 52.3057 21.1445L53.6111 19.8372C52.5041 18.7777 51.0334 17.9668 48.9681 17.9668C45.2337 17.9668 42.0942 21.0121 42.0942 24.7525C42.0942 28.4929 45.2337 31.538 48.9681 31.538C50.9841 31.538 52.5041 30.8763 53.6936 29.6347C54.9164 28.4099 55.2966 26.6888 55.2966 25.2987C55.2966 24.8681 55.2637 24.4712 55.1972 24.1402H48.9681ZM60.3311 29.8168C59.0089 29.8168 57.8687 28.7245 57.8687 27.1687C57.8687 25.5964 59.0089 24.5206 60.3311 24.5206C61.6527 24.5206 62.7929 25.5964 62.7929 27.1687C62.7929 28.7245 61.6527 29.8168 60.3311 29.8168ZM60.3311 22.7995C57.9184 22.7995 55.952 24.6365 55.952 27.1687C55.952 29.6844 57.9184 31.538 60.3311 31.538C62.7433 31.538 64.7096 29.6844 64.7096 27.1687C64.7096 24.6365 62.7433 22.7995 60.3311 22.7995ZM69.883 29.8168C68.5614 29.8168 67.4211 28.7245 67.4211 27.1687C67.4211 25.5964 68.5614 24.5206 69.8831 24.5206C71.2048 24.5206 72.345 25.5964 72.345 27.1687C72.345 28.7245 71.2048 29.8168 69.883 29.8168ZM69.883 22.7995C67.4705 22.7995 65.5045 24.6365 65.5045 27.1687C65.5045 29.6844 67.4705 31.538 69.8831 31.538C72.2954 31.538 74.2618 29.6844 74.2618 27.1687C74.2618 24.6365 72.2953 22.7995 69.883 22.7995Z" fill="white"></path>
<path d="M10.7782 8.27342C10.434 8.58446 10.2285 9.10327 10.2285 9.79193V9.63625V32.3612V32.2116C10.2285 32.8475 10.4047 33.3387 10.7032 33.655L10.7794 33.728V33.7284C11.0209 33.9467 11.3307 34.0626 11.6857 34.0623C12.0325 34.0623 12.4228 33.9515 12.8347 33.7176L27.7221 25.2452L32.8358 22.3346C33.4852 21.9651 33.8498 21.4883 33.9108 21.0027V21.0007C33.8498 20.514 33.4852 20.0376 32.8358 19.6681L27.7217 16.7579L12.8347 8.28543C12.422 8.05112 12.0314 7.93994 11.6836 7.93994C11.3291 7.93994 11.0197 8.0555 10.7783 8.27342H10.7782Z" fill="#00C1FF"></path>
<path d="M10.7794 33.728L10.7032 33.655C10.4047 33.3387 10.2285 32.8475 10.2285 32.2115V32.3612V9.64186V9.79191C10.2285 9.10325 10.434 8.58445 10.7782 8.27341L23.4857 21.0011L10.7794 33.728Z" fill="url(#paint0_linear_459_3935)"></path>
<path d="M27.7218 25.2451L23.4854 21.0011L27.7214 16.7579L32.8355 19.668C33.4849 20.0376 33.8495 20.514 33.9105 21.0007V21.0027C33.8495 21.4883 33.4849 21.9651 32.8355 22.3346L27.7218 25.2451" fill="url(#paint1_linear_459_3935)"></path>
<path d="M11.6855 34.062C11.3306 34.0623 11.0208 33.9464 10.7793 33.7281V33.7277L23.4856 21.0009L27.722 25.2448L12.8345 33.7173C12.4226 33.9513 12.0324 34.062 11.6855 34.062Z" fill="url(#paint2_linear_459_3935)"></path>
<path d="M23.4854 21.001L10.7778 8.27325C11.0194 8.05533 11.3287 7.93977 11.6833 7.93977C12.0311 7.93977 12.4216 8.0509 12.8344 8.28525L27.7214 16.7577L23.4853 21.001" fill="url(#paint3_linear_459_3935)"></path>
<path d="M11.6859 34.2124C11.331 34.2124 11.0208 34.0964 10.7793 33.8781L10.7788 33.8785C10.7778 33.8775 10.7768 33.8766 10.7757 33.8757L10.7096 33.8111C10.7075 33.8091 10.7056 33.8067 10.7031 33.8044L10.7793 33.728C11.0209 33.9463 11.3306 34.0623 11.6856 34.0619C12.0324 34.0619 12.4227 33.9512 12.8346 33.7172L27.722 25.2448L27.8174 25.3404L27.7208 25.3953L12.8345 33.8673C12.4592 34.0804 12.1021 34.1915 11.7797 34.21C11.7484 34.2116 11.7172 34.2124 11.6859 34.2124Z" fill="url(#paint4_linear_459_3935)"></path>
<path d="M10.7032 33.8047C10.4047 33.4884 10.2285 32.9976 10.2285 32.3613V32.2116C10.2285 32.8476 10.4047 33.3387 10.7032 33.655L10.7794 33.728L10.7032 33.8047Z" fill="url(#paint5_linear_459_3935)"></path>
<path d="M27.8176 25.3403L27.7222 25.2447L32.8359 22.3342C33.4853 21.9647 33.8499 21.4879 33.9109 21.0023C33.9109 21.1805 33.8712 21.3587 33.7923 21.5321C33.6332 21.8816 33.3144 22.2119 32.8359 22.4843L27.8176 25.3403" fill="url(#paint6_linear_459_3935)"></path>
<path d="M33.9108 21.0005C33.8499 20.5137 33.4853 20.0374 32.8359 19.6678L27.7217 16.7576L27.8171 16.6621H27.8175L32.8359 19.5181C33.5518 19.9258 33.9104 20.4631 33.9108 21.0005Z" fill="url(#paint7_linear_459_3935)"></path>
<path d="M10.2285 9.79199V9.63502C10.2285 9.57841 10.23 9.52306 10.2329 9.46931V9.46687C10.2329 9.46613 10.2329 9.46534 10.2332 9.46451V9.45847C10.2641 8.91067 10.434 8.48337 10.7032 8.19804L10.7782 8.27344C10.434 8.58453 10.2285 9.10333 10.2285 9.79199Z" fill="url(#paint8_linear_459_3935)"></path>
<path d="M27.7215 16.7578L12.8346 8.28528C12.4219 8.05097 12.0313 7.93984 11.6835 7.93984C11.329 7.93984 11.0196 8.05541 10.7781 8.27332L10.7031 8.19788C10.7265 8.17305 10.7509 8.14911 10.7761 8.12609C10.7769 8.12526 10.7781 8.12443 10.7789 8.12364C11.0185 7.90739 11.3246 7.79183 11.676 7.78975H11.6835C12.0313 7.78975 12.4219 7.90092 12.8346 8.13532L27.8174 16.6619L27.8169 16.6622L27.7215 16.7578Z" fill="url(#paint9_linear_459_3935)"></path>
<defs>
<linearGradient id="paint0_linear_459_3935" x1="18.3494" y1="9.40174" x2="7.39836" y2="20.3704" gradientUnits="userSpaceOnUse">
<stop stop-color="#00A0FF"></stop>
<stop offset="0.00657" stop-color="#00A1FF"></stop>
<stop offset="0.2601" stop-color="#00BEFF"></stop>
<stop offset="0.5122" stop-color="#00D2FF"></stop>
<stop offset="0.7604" stop-color="#00DFFF"></stop>
<stop offset="1" stop-color="#00E3FF"></stop>
</linearGradient>
<linearGradient id="paint1_linear_459_3935" x1="34.7017" y1="20.9278" x2="9.88431" y2="20.9278" gradientUnits="userSpaceOnUse">
<stop stop-color="#FFE000"></stop>
<stop offset="0.4087" stop-color="#FFBD00"></stop>
<stop offset="0.7754" stop-color="#FFA500"></stop>
<stop offset="1" stop-color="#FF9C00"></stop>
</linearGradient>
<linearGradient id="paint2_linear_459_3935" x1="25.4728" y1="25.0359" x2="6.91548" y2="43.4873" gradientUnits="userSpaceOnUse">
<stop stop-color="#FF3A44"></stop>
<stop offset="1" stop-color="#C31162"></stop>
</linearGradient>
<linearGradient id="paint3_linear_459_3935" x1="7.50274" y1="6.38631" x2="15.7733" y2="14.6224" gradientUnits="userSpaceOnUse">
<stop stop-color="#32A071"></stop>
<stop offset="0.0685" stop-color="#2DA771"></stop>
<stop offset="0.4762" stop-color="#15CF74"></stop>
<stop offset="0.8009" stop-color="#06E775"></stop>
<stop offset="1" stop-color="#00F076"></stop>
</linearGradient>
<linearGradient id="paint4_linear_459_3935" x1="25.4636" y1="27.9797" x2="10.602" y2="42.8653" gradientUnits="userSpaceOnUse">
<stop stop-color="#CC2E36"></stop>
<stop offset="1" stop-color="#9C0E4E"></stop>
</linearGradient>
<linearGradient id="paint5_linear_459_3935" x1="11.9213" y1="9.40173" x2="2.27365" y2="19.0651" gradientUnits="userSpaceOnUse">
<stop stop-color="#008DE0"></stop>
<stop offset="0.00657" stop-color="#008DE0"></stop>
<stop offset="0.2601" stop-color="#00A7E0"></stop>
<stop offset="0.5122" stop-color="#00B8E0"></stop>
<stop offset="0.7604" stop-color="#00C4E0"></stop>
<stop offset="1" stop-color="#00C7E0"></stop>
</linearGradient>
<linearGradient id="paint6_linear_459_3935" x1="34.7022" y1="21.0014" x2="9.8847" y2="21.0014" gradientUnits="userSpaceOnUse">
<stop stop-color="#E0C500"></stop>
<stop offset="0.4087" stop-color="#E0A600"></stop>
<stop offset="0.7754" stop-color="#E09100"></stop>
<stop offset="1" stop-color="#E08900"></stop>
</linearGradient>
<linearGradient id="paint7_linear_459_3935" x1="34.7021" y1="21.0015" x2="9.88471" y2="21.0015" gradientUnits="userSpaceOnUse">
<stop stop-color="#FFE840"></stop>
<stop offset="0.4087" stop-color="#FFCE40"></stop>
<stop offset="0.7754" stop-color="#FFBC40"></stop>
<stop offset="1" stop-color="#FFB540"></stop>
</linearGradient>
<linearGradient id="paint8_linear_459_3935" x1="11.9109" y1="9.41927" x2="2.61844" y2="18.3235" gradientUnits="userSpaceOnUse">
<stop stop-color="#40B8FF"></stop>
<stop offset="0.00657" stop-color="#40B9FF"></stop>
<stop offset="0.2601" stop-color="#40CEFF"></stop>
<stop offset="0.5122" stop-color="#40DDFF"></stop>
<stop offset="0.7604" stop-color="#40E7FF"></stop>
<stop offset="1" stop-color="#40EAFF"></stop>
</linearGradient>
<linearGradient id="paint9_linear_459_3935" x1="7.48445" y1="9.07805" x2="14.1208" y2="15.7252" gradientUnits="userSpaceOnUse">
<stop stop-color="#65B895"></stop>
<stop offset="0.0685" stop-color="#62BD95"></stop>
<stop offset="0.4762" stop-color="#50DB97"></stop>
<stop offset="0.8009" stop-color="#44ED98"></stop>
<stop offset="1" stop-color="#40F498"></stop>
</linearGradient>
</defs>
</svg>