<svg width="24" height="24" viewBox="0 0 24 24" fill="none" xmlns="http://www.w3.org/2000/svg">
<g style="mix-blend-mode:luminosity">
<path d="M20.835 6.74C20.635 6.87 20.35 6.99 20.23 7.125C20.185 7.17 20.16 7.22 20.17 7.27V7.785L20.02 8.29L19.87 8.79L19.705 9.34L19.365 10.465L19.035 11.575L18.785 12.41C18.785 12.54 18.78 12.67 18.77 12.795C18.735 13.275 18.635 13.735 18.475 14.165C18.38 14.43 18.265 14.685 18.125 14.925C18.075 15.02 18.015 15.115 17.955 15.205C17.755 15.52 17.515 15.81 17.25 16.065C17.045 16.27 16.82 16.46 16.575 16.62C16.575 16.62 16.575 16.62 16.57 16.62C16.53 16.655 16.485 16.685 16.435 16.71C16.28 16.815 16.115 16.905 15.945 16.985C15.83 17.045 15.715 17.095 15.595 17.14C15.57 17.155 15.54 17.165 15.515 17.175C15.23 17.31 14.9 17.4 14.57 17.445C14.55 17.45 14.535 17.45 14.515 17.455C14.315 17.49 14.12 17.52 13.92 17.535C13.83 17.545 13.735 17.55 13.645 17.55L13.29 17.53L11.58 17.44C11.58 17.435 11.575 17.44 11.575 17.44L10.715 17.395C10.65 17.395 10.58 17.395 10.515 17.39C10.245 17.38 9.98495 17.35 9.72495 17.295C9.71995 17.295 9.71995 17.295 9.71995 17.295C9.24495 17.205 8.78995 17.045 8.36495 16.83C8.12995 16.71 7.89995 16.575 7.68495 16.42C7.59495 16.355 7.50995 16.285 7.42495 16.21C7.18495 16.01 6.96995 15.795 6.76995 15.575C6.73995 15.545 6.71495 15.515 6.68995 15.485C6.65995 15.455 6.62995 15.42 6.60495 15.39C6.41495 15.15 6.25495 14.905 6.12495 14.645C6.00495 14.415 5.90995 14.17 5.83495 13.9C5.80495 13.805 5.77995 13.715 5.75995 13.615C5.75495 13.61 5.74995 13.6 5.74995 13.59C5.69995 13.385 5.65495 13.17 5.62995 12.955C5.59995 12.79 5.58495 12.625 5.58495 12.455C5.57495 12.39 5.57495 12.32 5.57495 12.255L6.52995 10.78L7.46495 9.34L7.88995 8.685L8.27495 8.095L8.40495 7.89V7.375C8.41495 7.26 8.41995 7.14 8.41495 7.03C8.40995 6.68 8.33995 6.34 8.22495 6.015C8.11495 5.67 7.95995 5.345 7.79995 5.045C7.60995 4.7 7.40995 4.39 7.24495 4.11C6.99995 3.7 6.82995 3.365 6.87495 3.13C7.23495 3.045 7.61495 3 7.99995 3H16C18.09 3 19.89 4.3 20.635 6.13C20.715 6.325 20.785 6.53 20.835 6.74Z" fill="#304FFE"></path>
<path d="M21.0001 8V8.135L20.3101 8.535L19.8701 8.79L19.3851 9.07L18.4151 9.635L17.4651 10.185L16.4951 10.745L16.1101 10.97C16.1101 11.21 16.0501 11.43 15.9401 11.63C15.7851 11.92 15.5251 12.16 15.1951 12.365C14.8601 12.57 14.4501 12.735 13.9901 12.855C13.9901 12.855 13.9901 12.85 13.9851 12.855C12.2051 13.315 9.77506 13.105 8.59506 12.225C8.26506 11.98 8.03506 11.68 7.93506 11.335C7.90506 11.22 7.89006 11.095 7.89006 10.97V7.375C7.89506 7.3 7.84506 7.225 7.75506 7.15C7.48506 6.935 6.85006 6.73 6.14006 6.525C5.58506 6.37 4.99006 6.215 4.49006 6.065C4.09506 5.945 3.76006 5.825 3.56006 5.71C3.65006 5.535 3.75506 5.36 3.86506 5.195C4.56506 4.17 5.63506 3.415 6.87506 3.13C7.23506 3.045 7.61506 3 8.00006 3H13.4001C16.0851 3.47 18.5601 4.565 20.6351 6.13C20.7151 6.325 20.7851 6.53 20.8351 6.74C20.9251 7.07 20.9801 7.41 20.9951 7.765C21.0001 7.84 21.0001 7.92 21.0001 8Z" fill="#4928F4"></path>
<path d="M21 7.99979V10.2048L20.89 10.5448L20.515 11.7098L20.125 12.9098L19.92 13.5498L19.73 14.1448L19.545 14.7098L19.365 15.2698L19.27 15.5648L19.145 15.9548C19.145 16.3348 19.135 16.6698 19.11 16.9548C19.105 16.9848 19.1 17.0148 19.1 17.0448C19.07 17.3098 19.03 17.5348 18.965 17.7248C18.96 17.7548 18.95 17.7848 18.94 17.8098C18.81 18.1698 18.615 18.3998 18.325 18.5498C18.255 18.5898 18.175 18.6198 18.09 18.6498C17.825 18.7398 17.49 18.7848 17.08 18.8098C16.78 18.8298 16.435 18.8348 16.045 18.8348H15.7L15.105 18.8098L15 18.8048L13.915 18.7598L12.815 18.7148L9.18996 18.5648L8.24996 18.5248H8.11996C7.72996 18.5198 7.39496 18.4948 7.10496 18.4548C6.68496 18.3898 6.35996 18.2798 6.11496 18.1148C5.76496 17.8898 5.55996 17.5598 5.43996 17.0998C5.40996 16.9898 5.38496 16.8748 5.36996 16.7498C5.31996 16.4598 5.29496 16.1248 5.27996 15.7498C5.27996 15.6748 5.27996 15.5998 5.27496 15.5198C5.26996 15.5148 5.27496 15.5148 5.27496 15.5148V15.2248C5.26996 15.0798 5.26996 14.9298 5.26996 14.7748L5.29496 13.9698L5.30996 13.3948L5.32996 12.7248V12.6298L5.36496 11.3998L5.39996 10.1698L5.43496 9.01479L5.46496 7.87979L5.47496 7.57979C5.47496 7.42479 4.94996 7.33479 4.36496 7.25979C3.89996 7.19979 3.38996 7.14478 3.08496 7.07478C3.10996 6.95978 3.13496 6.84479 3.16496 6.73479C3.25496 6.37479 3.38996 6.03479 3.55996 5.70979C3.64996 5.53479 3.75496 5.35979 3.86496 5.19479C4.94496 4.71979 6.06996 4.34979 7.24496 4.10979C8.27496 3.89479 9.34996 3.77979 10.46 3.77979C14.14 3.77979 17.54 5.02479 20.23 7.12479C20.49 7.32479 20.745 7.53979 20.995 7.76479C21 7.83979 21 7.91979 21 7.99979Z" fill="#6200EA"></path>
<path d="M21 9.18518V11.4552L20.725 11.9852L20.2 13.0102L19.92 13.5502L19.665 14.0452L19.555 14.2602C19.555 14.4152 19.555 14.5652 19.545 14.7102C19.545 14.9252 19.535 15.1302 19.52 15.3202C19.5 15.5452 19.47 15.7502 19.44 15.9402C19.365 16.3352 19.26 16.6752 19.11 16.9552C19.09 16.9902 19.07 17.0252 19.05 17.0552C18.995 17.1452 18.93 17.2302 18.86 17.3102C18.77 17.4202 18.67 17.5152 18.555 17.5952C18.385 17.7252 18.185 17.8302 17.955 17.9102C17.67 18.0152 17.34 18.0852 16.95 18.1252C16.695 18.1502 16.415 18.1652 16.11 18.1652L15.9 18.1752L14.86 18.2352H14.855L13.75 18.3002L12.625 18.3652L11.075 18.4552L9.19 18.5652L8.915 18.5802C8.66 18.5802 8.42 18.5652 8.19 18.5352C8.165 18.5302 8.145 18.5252 8.12 18.5252C7.78 18.4702 7.47 18.3802 7.19 18.2552C6.85 18.1052 6.555 17.9052 6.305 17.6652C6.085 17.4502 5.895 17.2052 5.74 16.9302C5.705 16.8652 5.67 16.8052 5.64 16.7352C5.49 16.4402 5.37 16.1102 5.28 15.7502C5.265 15.6902 5.25 15.6252 5.24 15.5602C5.21 15.4452 5.185 15.3252 5.17 15.2002C5.115 14.8802 5.085 14.5402 5.07 14.1852V14.1802C5.065 14.0352 5.06 13.8952 5.06 13.7452L4.815 13.1602L4.78 13.0702L4.75 12.9952L4.375 12.1002L4.315 11.9552L3.955 11.0902L3.555 10.1252C3.555 10.1252 3.555 10.1252 3.55 10.1252L3.145 9.15018L3 8.79518V8.00018C3 7.68518 3.03 7.37518 3.085 7.07518C3.11 6.96018 3.135 6.84518 3.165 6.73518C3.59 6.49018 4.035 6.26518 4.49 6.06518C5.53 5.60018 6.645 5.25518 7.8 5.04518C8.66 4.89018 9.555 4.80518 10.46 4.80518C14.115 4.80518 17.43 6.13018 20.02 8.29018C20.12 8.37018 20.215 8.45018 20.31 8.53518C20.545 8.74018 20.775 8.95518 21 9.18518Z" fill="#673AB7"></path>
<path d="M21 10.675V13.245L20.715 13.84L20.175 14.965L20.17 14.98C20.17 15.195 20.16 15.39 20.145 15.565C20.095 16.14 19.955 16.505 19.725 16.73C19.56 16.9 19.355 16.995 19.1 17.045C19.085 17.05 19.065 17.05 19.05 17.055C18.97 17.07 18.885 17.08 18.795 17.08C18.485 17.11 18.12 17.09 17.7 17.06C17.655 17.06 17.605 17.055 17.555 17.05C17.25 17.03 16.925 17.01 16.565 16.995C16.37 16.99 16.165 16.985 15.955 16.985H15.945L15.44 17.025H15.435L14.3 17.105L13.005 17.205L12.815 17.22L11.3 17.33L10.515 17.39L9.74 17.445C9.605 17.445 9.475 17.445 9.345 17.44C9.345 17.44 9.34 17.435 9.34 17.44C8.775 17.43 8.27 17.395 7.82 17.31C7.405 17.24 7.04 17.13 6.73 16.965C6.41 16.81 6.145 16.59 5.93 16.31C5.725 16.035 5.575 15.69 5.48 15.275C5.48 15.27 5.48 15.27 5.48 15.27C5.41 14.935 5.37 14.545 5.37 14.105L5.295 13.97L4.85 13.175L4.785 13.065L4.75 12.995L4.285 12.17L4.055 11.755L3.765 11.24L3.265 10.345L3 9.87496V8.03496C3.44 7.74496 3.895 7.48996 4.365 7.25996C4.935 6.96996 5.525 6.72496 6.14 6.52496C6.81 6.30496 7.51 6.12996 8.225 6.01496C8.95 5.89496 9.695 5.83496 10.46 5.83496C13.86 5.83496 16.98 7.04996 19.385 9.06996C19.495 9.15496 19.6 9.24996 19.705 9.33996C20.125 9.71496 20.525 10.12 20.89 10.545C20.93 10.59 20.97 10.63 21 10.675Z" fill="#8E24AA"></path>
<path d="M21 12.3549V15.9699C20.88 15.8999 20.715 15.8149 20.51 15.7249C20.4 15.6699 20.275 15.6149 20.145 15.5649C19.955 15.4799 19.75 15.3999 19.52 15.3199C19.47 15.2999 19.42 15.2849 19.365 15.2699C19.275 15.2349 19.18 15.2049 19.085 15.1749C18.79 15.0849 18.465 14.9999 18.125 14.9249C17.995 14.8999 17.86 14.8749 17.725 14.8549C17.29 14.7799 16.825 14.7349 16.34 14.7299C16.3 14.7249 16.255 14.7249 16.215 14.7249L14.93 14.7349L13.18 14.7449H13.175L9.43 14.7749C8.24 14.7749 7.51 15.0599 7.07 15.1749C7.07 15.1749 7.065 15.1749 7.065 15.1799C6.6 15.2999 6.455 15.2249 6.415 14.4099C6.405 14.1849 6.4 13.8949 6.4 13.5399L6.12 13.3249L5.63 12.9549L5.33 12.7249L5.27 12.6799L4.44 12.0499L4.315 11.9549L4.055 11.7549L3.575 11.3949L3 10.9549V9.25486C3.05 9.21486 3.095 9.17986 3.145 9.14986C3.87 8.64986 4.645 8.22486 5.465 7.87986C6.195 7.56986 6.965 7.32486 7.755 7.14986C7.97 7.10486 8.19 7.05986 8.415 7.02986C9.08 6.91486 9.765 6.85986 10.46 6.85986C13.465 6.85986 16.225 7.90486 18.415 9.63486C18.745 9.89486 19.065 10.1699 19.365 10.4649C19.775 10.8549 20.16 11.2699 20.515 11.7099C20.585 11.7999 20.655 11.8899 20.725 11.9849C20.82 12.1049 20.91 12.2299 21 12.3549Z" fill="#C2185B"></path>
<path d="M21 14.3601V16.0001C21 16.3251 20.97 16.6451 20.91 16.9551C20.82 17.4151 20.665 17.8551 20.455 18.2651C20.345 18.2901 20.22 18.2901 20.08 18.2701C19.765 18.2151 19.395 18.0501 18.995 17.8351C18.975 17.8301 18.955 17.8201 18.94 17.8101C18.815 17.7451 18.685 17.6751 18.555 17.5951C18.29 17.4501 18.01 17.2901 17.73 17.1401C17.67 17.1101 17.61 17.0801 17.555 17.0501C17.235 16.8851 16.905 16.7351 16.575 16.6201C16.575 16.6201 16.575 16.6201 16.57 16.6201C16.5 16.5951 16.425 16.5701 16.35 16.5501C16.065 16.4701 15.775 16.4201 15.495 16.4201L14.945 16.2601L12.51 15.5551C12.51 15.5551 12.51 15.5551 12.505 15.5551L11.01 15.1201H11.005L10.355 14.9301C8.475 14.9301 7.32 15.7301 6.76 15.4251C6.54 15.3101 6.41 15.0201 6.365 14.4501C6.35 14.2901 6.345 14.1101 6.345 13.9001L5.76 13.6151L5.735 13.6051H5.73L5.31 13.3951L4.85 13.1751L4.815 13.1601L4.73 13.1151L3.75 12.6401L3 12.2751V10.5601C3.085 10.4851 3.175 10.4151 3.265 10.3451C3.36 10.2701 3.455 10.2001 3.55 10.1251C3.555 10.1251 3.555 10.1251 3.555 10.1251C4.145 9.70014 4.77 9.32514 5.435 9.01514C6.21 8.64514 7.035 8.36014 7.89 8.17514C8.015 8.14514 8.145 8.11514 8.275 8.09514C8.985 7.96014 9.715 7.89014 10.46 7.89014C13.095 7.89014 15.515 8.74514 17.465 10.1851C18.03 10.6051 18.555 11.0701 19.035 11.5751C19.43 11.9901 19.795 12.4401 20.125 12.9101C20.15 12.9451 20.175 12.9801 20.2 13.0101C20.385 13.2801 20.555 13.5551 20.715 13.8401C20.82 14.0101 20.91 14.1851 21 14.3601Z" fill="#D81B60"></path>
<path d="M20.91 16.955C20.82 17.415 20.665 17.855 20.455 18.265C20.36 18.45 20.255 18.625 20.14 18.795C20.07 18.9 19.995 19 19.92 19.095C19.74 19.025 19.475 18.925 19.15 18.815C19.15 18.815 19.15 18.815 19.15 18.81C18.905 18.725 18.625 18.635 18.325 18.55C18.24 18.525 18.155 18.5 18.065 18.475C17.71 18.38 17.34 18.295 16.98 18.245C16.68 18.195 16.385 18.165 16.11 18.165L15.88 18.1H15.875L14.665 17.75L13.92 17.535L13.09 17.295H13.085L12.815 17.22L9.55 16.28L8.61 16.01L7.91 15.845L6.77 15.575L6.63 15.54C6.63 15.54 6.63 15.54 6.625 15.54L5.48 15.275C5.48 15.27 5.48 15.27 5.48 15.27L5.275 15.225L5.17 15.2L4.335 15.005L4.24 14.98L3.53 14.395L3 13.95V11.91C3.185 11.73 3.375 11.56 3.575 11.395C3.635 11.34 3.7 11.29 3.765 11.24C3.825 11.19 3.89 11.14 3.955 11.09C4.41 10.745 4.89 10.435 5.4 10.17C6.05 9.82004 6.74 9.54004 7.465 9.34004C7.605 9.29504 7.745 9.25504 7.89 9.22504C8.71 9.02004 9.57 8.91504 10.46 8.91504C12.695 8.91504 14.775 9.59004 16.495 10.745C17.35 11.32 18.12 12.01 18.77 12.795C19.1 13.19 19.4 13.605 19.665 14.045C19.69 14.08 19.71 14.11 19.73 14.145C19.89 14.41 20.04 14.685 20.175 14.965C20.3 15.215 20.41 15.465 20.51 15.725C20.67 16.125 20.8 16.535 20.91 16.955Z" fill="#F50057"></path>
<path d="M20.14 18.7948C20.07 18.8998 19.995 18.9998 19.92 19.0948C19.7 19.3698 19.46 19.6198 19.19 19.8398C18.955 20.0348 18.705 20.2098 18.44 20.3598C18.34 20.3348 18.24 20.3048 18.135 20.2648C17.805 20.1498 17.46 19.9598 17.14 19.7598C16.66 19.4548 16.245 19.1248 16.06 18.9748C15.99 18.9148 15.955 18.8848 15.955 18.8848L15.105 18.8098L15 18.7998L13.9 18.7048L12.76 18.6048L11.075 18.4548L8.405 18.2198L8.395 18.2148L7.455 17.7598L6.505 17.2998L5.74 16.9298L5.575 16.8498L5.37 16.7498L4.66 16.4048L3.715 15.9498L3.42 15.8048L3 15.6748V13.4398C3.235 13.1598 3.485 12.8948 3.75 12.6398C3.92 12.4798 4.1 12.3198 4.285 12.1698C4.315 12.1448 4.345 12.1198 4.375 12.0998C4.395 12.0748 4.42 12.0598 4.44 12.0498C4.735 11.8098 5.045 11.5948 5.365 11.3998C5.735 11.1648 6.125 10.9548 6.53 10.7798C6.965 10.5848 7.42 10.4198 7.89 10.2948C8.705 10.0648 9.57 9.94482 10.46 9.94482C12.5 9.94482 14.385 10.5648 15.94 11.6298C16.935 12.3098 17.795 13.1698 18.475 14.1648C18.7 14.4848 18.9 14.8248 19.085 15.1748C19.15 15.3048 19.215 15.4348 19.27 15.5648C19.33 15.6898 19.385 15.8148 19.44 15.9398C19.545 16.1998 19.64 16.4598 19.725 16.7298C19.885 17.2298 20.005 17.7398 20.08 18.2698C20.105 18.4448 20.125 18.6198 20.14 18.7948Z" fill="#FF1744"></path>
<path d="M19.195 19.7102C19.195 19.7502 19.195 19.7952 19.19 19.8402C18.955 20.0352 18.705 20.2102 18.44 20.3602C18.33 20.4202 18.22 20.4802 18.105 20.5302C17.99 20.5852 17.875 20.6352 17.755 20.6802C17.585 20.5902 17.355 20.4802 17.11 20.3752C16.765 20.2202 16.39 20.0802 16.1 20.0352C16.03 20.0202 15.965 20.0152 15.905 20.0152L15.085 19.9102H15.075L14.055 19.7752L13.025 19.6402L12.545 19.5802L8.765 19.0902C8.52 19.0902 8.26 19.0752 7.99 19.0402C7.66 19.0102 7.315 18.9602 6.97 18.8902C6.63 18.8302 6.285 18.7502 5.955 18.6652C5.61 18.5852 5.27 18.4902 4.955 18.4002C4.59 18.2902 4.25 18.1852 3.965 18.0902C3.73 18.0152 3.53 17.9452 3.375 17.8902C3.285 17.6752 3.21 17.4502 3.155 17.2202C3.05 16.8302 3 16.4202 3 16.0002V15.1652C3.16 14.9002 3.335 14.6402 3.53 14.3952C3.885 13.9252 4.29 13.4952 4.73 13.1152C4.745 13.0952 4.765 13.0802 4.78 13.0702L4.785 13.0652C4.94 12.9252 5.1 12.8002 5.27 12.6802C5.29 12.6602 5.31 12.6452 5.33 12.6302C5.41 12.5702 5.495 12.5102 5.585 12.4552C6.3 11.9702 7.09 11.5902 7.935 11.3352C8.735 11.0952 9.58 10.9702 10.46 10.9702C12.205 10.9702 13.835 11.4852 15.195 12.3652C16.2 13.0102 17.065 13.8602 17.725 14.8552C17.805 14.9702 17.88 15.0852 17.955 15.2052C18.3 15.7902 18.585 16.4202 18.795 17.0802C18.82 17.1552 18.84 17.2302 18.86 17.3102C18.9 17.4452 18.935 17.5852 18.965 17.7252C18.975 17.7602 18.985 17.7952 18.995 17.8352C19.065 18.1502 19.115 18.4802 19.15 18.8102C19.15 18.8152 19.15 18.8152 19.15 18.8152C19.18 19.1102 19.195 19.4102 19.195 19.7102Z" fill="#FF5722"></path>
<path d="M18.165 19.71C18.165 19.885 18.155 20.075 18.135 20.265C18.125 20.355 18.115 20.445 18.105 20.53C17.99 20.585 17.875 20.635 17.755 20.68C17.53 20.765 17.3 20.835 17.065 20.885C16.905 20.92 16.74 20.95 16.575 20.965H16.57C16.415 20.87 16.235 20.755 16.05 20.625C15.715 20.39 15.365 20.125 15.085 19.91C15.08 19.905 15.08 19.905 15.075 19.9C14.78 19.675 14.57 19.505 14.57 19.505L14.04 19.525L13.02 19.56L12.545 19.58L10.635 19.65L9.02003 19.71C8.91503 19.715 8.79003 19.715 8.63503 19.71H8.63003C8.42003 19.705 8.17003 19.69 7.89503 19.665C7.57503 19.64 7.22503 19.61 6.87003 19.575C6.52503 19.535 6.17503 19.495 5.84003 19.455C5.47003 19.415 5.12003 19.37 4.82003 19.33C4.58503 19.3 4.38003 19.275 4.21503 19.255C4.07503 19.095 3.95003 18.93 3.83003 18.75C3.65003 18.48 3.49503 18.195 3.37503 17.89C3.28503 17.675 3.21003 17.45 3.15503 17.22C3.30003 16.775 3.49003 16.355 3.71503 15.95C3.89503 15.62 4.10503 15.305 4.33503 15.005C4.56003 14.71 4.80503 14.435 5.07003 14.185V14.18C5.14503 14.105 5.22003 14.035 5.29503 13.97C5.43503 13.84 5.58003 13.72 5.73003 13.605H5.73503C5.74003 13.595 5.74503 13.595 5.75003 13.59C5.87003 13.495 5.99503 13.41 6.12003 13.325C6.86003 12.82 7.69503 12.445 8.59503 12.225C9.19003 12.08 9.81503 12 10.46 12C11.73 12 12.93 12.305 13.985 12.855H13.99C14.895 13.32 15.695 13.96 16.34 14.73C16.695 15.14 17 15.59 17.25 16.065C17.425 16.385 17.575 16.72 17.7 17.06C17.71 17.09 17.72 17.115 17.73 17.14C17.815 17.39 17.89 17.65 17.955 17.91C18 18.095 18.035 18.285 18.065 18.475C18.075 18.535 18.085 18.59 18.09 18.65C18.14 18.995 18.165 19.35 18.165 19.71Z" fill="#FF6F00"></path>
<path d="M17.1401 19.7098V19.7598C17.1401 19.9298 17.1251 20.1448 17.1101 20.3748C17.0951 20.5448 17.0801 20.7198 17.0651 20.8848C16.9051 20.9198 16.7401 20.9498 16.5751 20.9648H16.5701C16.3801 20.9898 16.1951 20.9998 16.0001 20.9998H15.1251L14.9351 20.9448L13.9501 20.6448L12.9501 20.3448L10.6351 19.6498L9.63508 19.3498C9.63508 19.3498 9.22008 19.5148 8.63508 19.7098H8.63008C8.40508 19.7848 8.16008 19.8648 7.90008 19.9448C7.57508 20.0398 7.23008 20.1348 6.89008 20.2098C6.54008 20.2898 6.19508 20.3498 5.88508 20.3748C5.79008 20.3848 5.69508 20.3898 5.61008 20.3898C5.33008 20.2348 5.06008 20.0498 4.81508 19.8448C4.60008 19.6648 4.40008 19.4698 4.21508 19.2548C4.07508 19.0948 3.95008 18.9298 3.83008 18.7498C3.86508 18.5248 3.90508 18.3048 3.96508 18.0898C4.11508 17.4948 4.35008 16.9248 4.66008 16.4048C4.83008 16.1098 5.02008 15.8248 5.24008 15.5598C5.24508 15.5448 5.26008 15.5298 5.27508 15.5198C5.27008 15.5148 5.27508 15.5148 5.27508 15.5148C5.34008 15.4298 5.41008 15.3498 5.48008 15.2748C5.48008 15.2698 5.48008 15.2698 5.48008 15.2698C5.68508 15.0498 5.89508 14.8398 6.12508 14.6448C6.20508 14.5798 6.28008 14.5148 6.36508 14.4498C6.38008 14.4348 6.39508 14.4248 6.41508 14.4098C7.54008 13.5498 8.94508 13.0298 10.4601 13.0298C12.1801 13.0298 13.7451 13.6748 14.9301 14.7348C15.5001 15.2498 15.9851 15.8648 16.3501 16.5498C16.3801 16.5998 16.4101 16.6548 16.4351 16.7098C16.4801 16.7998 16.5251 16.8948 16.5651 16.9948C16.7301 17.3548 16.8601 17.7348 16.9501 18.1248C16.9601 18.1648 16.9701 18.2048 16.9801 18.2448C17.0201 18.4298 17.0551 18.6198 17.0801 18.8098C17.1201 19.1048 17.1401 19.4048 17.1401 19.7098Z" fill="#FF9800"></path>
<path d="M16.1099 19.7102C16.1099 19.8102 16.1049 19.9202 16.0999 20.0352C16.0899 20.2202 16.0749 20.4202 16.0499 20.6252C16.0399 20.7502 16.0199 20.8752 15.9999 21.0002H13.2599L12.7299 20.9152L10.6599 20.5852L10.3649 20.5402L9.68993 20.4302C9.39493 20.4302 8.75493 20.5602 8.07993 20.6852C7.72493 20.7502 7.36493 20.8202 7.03993 20.8652C6.99993 20.8702 6.95993 20.8752 6.92493 20.8802H6.91993C6.56993 20.8052 6.22993 20.6902 5.90993 20.5402C5.80993 20.4952 5.70993 20.4452 5.60993 20.3902C5.32993 20.2352 5.05993 20.0502 4.81493 19.8452C4.80993 19.7852 4.80493 19.7352 4.80493 19.7102C4.80493 19.5802 4.80993 19.4552 4.81993 19.3302C4.83993 19.0102 4.88493 18.7002 4.95493 18.4002C5.06493 17.9452 5.22493 17.5052 5.43993 17.1002C5.47993 17.0152 5.52493 16.9302 5.57493 16.8502C5.59493 16.8102 5.61993 16.7752 5.63993 16.7352C5.72993 16.5902 5.82993 16.4502 5.92993 16.3102C6.13993 16.0352 6.37493 15.7752 6.62493 15.5402C6.62993 15.5402 6.62993 15.5402 6.62993 15.5402C6.64993 15.5202 6.66993 15.5002 6.68993 15.4852C6.71493 15.4652 6.73493 15.4402 6.75993 15.4252C6.85993 15.3352 6.95993 15.2552 7.06493 15.1802C7.06493 15.1752 7.06993 15.1752 7.06993 15.1752C8.01493 14.4702 9.18493 14.0552 10.4599 14.0552C11.4499 14.0552 12.3699 14.3052 13.1749 14.7452H13.1799C13.8699 15.1252 14.4699 15.6402 14.9449 16.2602C15.1299 16.5002 15.2949 16.7552 15.4349 17.0252H15.4399C15.4649 17.0752 15.4899 17.1252 15.5149 17.1752C15.6649 17.4702 15.7849 17.7802 15.8749 18.1002H15.8799C15.8849 18.1252 15.8949 18.1502 15.8999 18.1752C15.9599 18.3902 16.0099 18.6102 16.0449 18.8352C16.0499 18.8802 16.0549 18.9302 16.0599 18.9752C16.0949 19.2152 16.1099 19.4602 16.1099 19.7102Z" fill="#FFC107"></path>
<path d="M15.085 19.655C15.085 19.735 15.085 19.82 15.075 19.9V19.905C15.075 19.91 15.075 19.91 15.075 19.91C15.065 20.27 15.015 20.625 14.935 20.945C14.935 20.965 14.93 20.98 14.92 21H12.585L10.66 20.585L10.405 20.53L10.365 20.54L8.22996 20.98L8.13496 21H7.99996C7.67996 21 7.36496 20.97 7.05996 20.91C7.01496 20.9 6.96996 20.89 6.92496 20.88H6.91996C6.56996 20.805 6.22996 20.69 5.90996 20.54C5.89996 20.485 5.88996 20.43 5.88496 20.375C5.84996 20.16 5.83496 19.935 5.83496 19.71C5.83496 19.625 5.83496 19.54 5.83996 19.455C5.85496 19.185 5.89496 18.92 5.95496 18.665C5.99496 18.475 6.04996 18.29 6.11496 18.115C6.16996 17.96 6.23496 17.81 6.30496 17.665C6.36496 17.54 6.43496 17.42 6.50496 17.3C6.57496 17.185 6.64996 17.075 6.72996 16.965C6.92996 16.69 7.16496 16.435 7.42496 16.21C7.57496 16.08 7.73996 15.955 7.90996 15.845C8.63996 15.365 9.51496 15.085 10.46 15.085C10.645 15.085 10.825 15.095 11 15.12H11.01C11.545 15.18 12.045 15.33 12.505 15.555C12.51 15.555 12.51 15.555 12.51 15.555C13.235 15.91 13.85 16.445 14.3 17.105C14.375 17.215 14.45 17.335 14.515 17.455C14.57 17.55 14.62 17.65 14.665 17.75C14.735 17.905 14.8 18.07 14.855 18.235H14.86C14.915 18.42 14.965 18.605 15 18.8V18.805C15.055 19.08 15.085 19.365 15.085 19.655Z" fill="#FFD54F"></path>
<path d="M14.0551 19.7602V19.7752C14.0551 20.0702 14.0201 20.3602 13.9501 20.6452C13.9251 20.7652 13.8901 20.8852 13.8451 21.0002H11.6051L10.4601 20.6852L9.31511 21.0002H8.00011C7.68011 21.0002 7.36511 20.9702 7.06011 20.9102C7.05011 20.8952 7.04511 20.8802 7.04011 20.8652C6.97011 20.6502 6.91511 20.4352 6.89011 20.2102C6.87011 20.0652 6.86011 19.9152 6.86011 19.7602C6.86011 19.7002 6.86011 19.6352 6.87011 19.5752C6.87511 19.3402 6.91011 19.1102 6.97011 18.8902C7.00011 18.7402 7.04511 18.5952 7.10511 18.4552C7.12511 18.3852 7.15511 18.3202 7.19011 18.2552C7.26511 18.0852 7.35511 17.9202 7.45511 17.7602C7.56511 17.6002 7.68511 17.4502 7.82011 17.3102C7.98011 17.1302 8.16011 16.9652 8.36511 16.8302C8.71511 16.5752 9.11511 16.3852 9.55011 16.2802C9.84011 16.2002 10.1451 16.1602 10.4601 16.1602C11.4601 16.1602 12.3551 16.5602 13.0051 17.2052C13.0301 17.2302 13.0601 17.2602 13.0851 17.2952H13.0901C13.1601 17.3702 13.2251 17.4452 13.2901 17.5302C13.4751 17.7652 13.6301 18.0202 13.7501 18.3002C13.8101 18.4302 13.8601 18.5652 13.9001 18.7052C13.9051 18.7252 13.9101 18.7402 13.9151 18.7602C13.9851 19.0052 14.0301 19.2602 14.0401 19.5252C14.0501 19.6002 14.0551 19.6802 14.0551 19.7602Z" fill="#FFE082"></path>
<path d="M13.0299 19.7599C13.0299 19.9649 13.0049 20.1599 12.9499 20.3449C12.8999 20.5449 12.8249 20.7349 12.7299 20.9149C12.7149 20.9449 12.6799 20.9999 12.6799 20.9999H8.23989C8.23489 20.9949 8.22989 20.9849 8.22989 20.9799C8.16989 20.8849 8.11989 20.7899 8.07989 20.6849C7.97989 20.4549 7.91989 20.2049 7.89989 19.9449C7.88989 19.8849 7.88989 19.8199 7.88989 19.7599C7.88989 19.7299 7.88989 19.6949 7.89489 19.6649C7.89989 19.4449 7.92989 19.2349 7.98989 19.0399C8.03989 18.8599 8.10489 18.6949 8.18989 18.5349C8.18989 18.5349 8.19489 18.5299 8.19489 18.5249C8.25489 18.4199 8.31989 18.3149 8.39489 18.2149C8.63989 17.8849 8.96489 17.6149 9.33989 17.4399C9.34489 17.4399 9.34489 17.4399 9.34489 17.4399C9.46489 17.3799 9.58989 17.3299 9.71989 17.2949C9.71989 17.2949 9.71989 17.2949 9.72489 17.2949C9.95489 17.2249 10.2049 17.1899 10.4599 17.1899C10.7549 17.1899 11.0399 17.2349 11.2999 17.3299C11.3949 17.3549 11.4849 17.3949 11.5749 17.4399C11.5749 17.4399 11.5749 17.4399 11.5799 17.4399C12.0099 17.6449 12.3749 17.9649 12.6249 18.3649C12.6749 18.4399 12.7199 18.5199 12.7599 18.6049C12.7799 18.6399 12.7999 18.6799 12.8149 18.7149C12.9299 18.9749 12.9999 19.2599 13.0199 19.5599C13.0249 19.5849 13.0249 19.6099 13.0249 19.6399C13.0299 19.6799 13.0299 19.7199 13.0299 19.7599Z" fill="#FFECB3"></path>
<path d="M15 5.5H9C7.05 5.5 5.5 7.05 5.5 9V15C5.5 16.95 7.05 18.5 9 18.5H15C16.95 18.5 18.5 16.95 18.5 15V9C18.5 7.05 16.95 5.5 15 5.5Z" stroke="white" stroke-width="2" stroke-miterlimit="10" stroke-linecap="round" stroke-linejoin="round"></path>
<path d="M15.5 8.5C15.7761 8.5 16 8.27614 16 8C16 7.72386 15.7761 7.5 15.5 7.5C15.2239 7.5 15 7.72386 15 8C15 8.27614 15.2239 8.5 15.5 8.5Z" fill="white"></path>
<path d="M12 15C13.6569 15 15 13.6569 15 12C15 10.3431 13.6569 9 12 9C10.3431 9 9 10.3431 9 12C9 13.6569 10.3431 15 12 15Z" stroke="white" stroke-width="2" stroke-miterlimit="10" stroke-linecap="round" stroke-linejoin="round"></path>
</g>
</svg>